<?xml version="1.0" encoding="UTF-8" standalone="no"?>
<!-- Created with Inkscape (http://www.inkscape.org/) -->

<svg
   version="1.1"
   id="svg55"
   width="107.27802"
   height="82.055084"
   viewBox="0 0 107.27802 82.055085"
   sodipodi:docname="permaplant_illustration_11.svg"
   xml:space="preserve"
   inkscape:version="1.2.2 (b0a8486541, 2022-12-01)"
   inkscape:export-filename="permaplant_illustration_11.png"
   inkscape:export-xdpi="536.92267"
   inkscape:export-ydpi="536.92267"
   xmlns:inkscape="http://www.inkscape.org/namespaces/inkscape"
   xmlns:sodipodi="http://sodipodi.sourceforge.net/DTD/sodipodi-0.dtd"
   xmlns="http://www.w3.org/2000/svg"
   xmlns:svg="http://www.w3.org/2000/svg"><defs
     id="defs59" /><sodipodi:namedview
     id="namedview57"
     pagecolor="#ffffff"
     bordercolor="#666666"
     borderopacity="1.0"
     inkscape:showpageshadow="2"
     inkscape:pageopacity="0.0"
     inkscape:pagecheckerboard="0"
     inkscape:deskcolor="#d1d1d1"
     showgrid="false"
     inkscape:zoom="4.2451559"
     inkscape:cx="51.117086"
     inkscape:cy="32.50764"
     inkscape:window-width="1920"
     inkscape:window-height="1056"
     inkscape:window-x="1920"
     inkscape:window-y="24"
     inkscape:window-maximized="1"
     inkscape:current-layer="layer2" /><g
     inkscape:groupmode="layer"
     id="layer2"
     inkscape:label="Image 2"
     style="display:inline"
     transform="translate(-339.62808,-435.99252)"><g
       id="g1703"
       transform="matrix(0.47139182,0,0,0.47139182,246.83776,307.24258)"
       inkscape:export-filename="g1703.svg"
       inkscape:export-xdpi="96"
       inkscape:export-ydpi="96"><path
         style="fill:none;stroke:#718dbf;stroke-width:17.3333;stroke-linecap:butt;stroke-linejoin:round;stroke-dasharray:none;stroke-opacity:1;paint-order:normal"
         d="m 197.82032,299.29215 c 14.23704,1.6153 26.02411,-6.7657 37.29785,-17.24118 0,0 23.7279,17.47224 37.93449,17.4476 14.29716,-0.0248 37.84042,-17.70492 37.84042,-17.70492 0,0 23.63675,17.79442 37.81637,17.93011 14.09461,0.13487 37.55392,-17.09187 37.55392,-17.09187 14.9351,12.29291 26.77906,16.79569 37.15144,17.58986"
         id="path1636"
         sodipodi:nodetypes="ccscscc" /><path
         style="fill:none;stroke:#718dbf;stroke-width:17.3333;stroke-linecap:butt;stroke-linejoin:round;stroke-dasharray:none;stroke-opacity:1;paint-order:normal"
         d="m 198.16435,345.4451 c 14.23704,1.6153 26.02411,-6.7657 37.29785,-17.24118 0,0 23.7279,17.47224 37.93449,17.4476 14.29716,-0.0248 37.84042,-17.70492 37.84042,-17.70492 0,0 23.63675,17.79442 37.81637,17.93011 14.09461,0.13487 37.55392,-17.09187 37.55392,-17.09187 14.9351,12.29291 26.77906,16.79569 37.15144,17.58986"
         id="path1638"
         sodipodi:nodetypes="ccscscc" /><path
         style="fill:none;stroke:#718dbf;stroke-width:17.3333;stroke-linecap:butt;stroke-linejoin:round;stroke-dasharray:none;stroke-opacity:1;paint-order:normal"
         d="m 197.86396,391.03965 c 14.23704,1.6153 26.02411,-6.7657 37.29785,-17.24118 0,0 23.7279,17.47224 37.93449,17.4476 14.29716,-0.0248 37.84042,-17.70492 37.84042,-17.70492 0,0 23.63675,17.79442 37.81637,17.93011 14.09461,0.13487 37.55392,-17.09187 37.55392,-17.09187 14.9351,12.29291 26.77906,16.79569 37.15144,17.58986"
         id="path1640"
         sodipodi:nodetypes="ccscscc" /><path
         style="fill:none;stroke:#718dbf;stroke-width:17.3333;stroke-linecap:butt;stroke-linejoin:round;stroke-dasharray:none;stroke-opacity:1;paint-order:normal"
         d="m 198.1462,437.62602 c 14.23704,1.6153 26.02411,-6.7657 37.29785,-17.24118 0,0 23.7279,17.47224 37.93449,17.4476 14.29716,-0.0248 37.84042,-17.70492 37.84042,-17.70492 0,0 23.63675,17.79442 37.81637,17.93011 14.09461,0.13487 37.55392,-17.09187 37.55392,-17.09187 14.9351,12.29291 26.77906,16.79569 37.15144,17.58986"
         id="path1642"
         sodipodi:nodetypes="ccscscc" /></g></g></svg>
