<?xml version="1.0" encoding="UTF-8" standalone="no"?>
<!-- Created with Inkscape (http://www.inkscape.org/) -->

<svg
   version="1.1"
   id="svg55"
   width="180.49628"
   height="146.8786"
   viewBox="0 0 180.49628 146.8786"
   sodipodi:docname="permaplant_illustration_09.svg"
   xml:space="preserve"
   inkscape:version="1.2.2 (b0a8486541, 2022-12-01)"
   inkscape:export-filename="permaplant_illustration_09.png"
   inkscape:export-xdpi="96"
   inkscape:export-ydpi="96"
   xmlns:inkscape="http://www.inkscape.org/namespaces/inkscape"
   xmlns:sodipodi="http://sodipodi.sourceforge.net/DTD/sodipodi-0.dtd"
   xmlns="http://www.w3.org/2000/svg"
   xmlns:svg="http://www.w3.org/2000/svg"><defs
     id="defs59" /><sodipodi:namedview
     id="namedview57"
     pagecolor="#ffffff"
     bordercolor="#666666"
     borderopacity="1.0"
     inkscape:showpageshadow="2"
     inkscape:pageopacity="0.0"
     inkscape:pagecheckerboard="0"
     inkscape:deskcolor="#d1d1d1"
     showgrid="false"
     inkscape:zoom="2.122578"
     inkscape:cx="148.87557"
     inkscape:cy="134.74181"
     inkscape:window-width="1920"
     inkscape:window-height="1056"
     inkscape:window-x="1920"
     inkscape:window-y="24"
     inkscape:window-maximized="1"
     inkscape:current-layer="g1906" /><g
     inkscape:groupmode="layer"
     id="g1906"
     inkscape:label="Image 3"
     transform="translate(-298.49719,-534.26922)"><g
       id="g4030"><g
         id="g3966"
         transform="translate(-10.38577,13.441738)"><path
           style="fill:none;stroke:#727273;stroke-width:6.41602;stroke-linecap:butt;stroke-linejoin:round;stroke-dasharray:none;stroke-opacity:1;paint-order:normal"
           d="m 390.59279,630.04207 c 5.26992,0.59791 9.63297,-2.50436 13.80601,-6.38192 0,0 8.78301,6.46745 14.04166,6.45833 5.29217,-0.009 14.00684,-6.55358 14.00684,-6.55358 0,0 8.74927,6.5867 13.99794,6.63693 5.2172,0.0499 13.90079,-6.32665 13.90079,-6.32665 5.52831,4.55029 9.91242,6.21702 13.75181,6.51098"
           id="path3926"
           sodipodi:nodetypes="ccscscc" /><path
           style="fill:none;stroke:#727273;stroke-width:6.41602;stroke-linecap:butt;stroke-linejoin:round;stroke-dasharray:none;stroke-opacity:1;paint-order:normal"
           d="m 390.4816,646.91914 c 5.26992,0.59792 9.63297,-2.50436 13.80601,-6.38191 0,0 8.78301,6.46744 14.04166,6.45832 5.29217,-0.009 14.00684,-6.55357 14.00684,-6.55357 0,0 8.74927,6.5867 13.99794,6.63693 5.21719,0.0499 13.90079,-6.32665 13.90079,-6.32665 5.52831,4.55028 9.91242,6.21701 13.75181,6.51098"
           id="path3928"
           sodipodi:nodetypes="ccscscc" /><path
           style="fill:none;stroke:#727273;stroke-width:6.41602;stroke-linecap:butt;stroke-linejoin:round;stroke-dasharray:none;stroke-opacity:1;paint-order:normal"
           d="m 390.58607,664.16335 c 5.26992,0.59791 9.63297,-2.50437 13.80601,-6.38192 0,0 8.78301,6.46744 14.04166,6.45832 5.29217,-0.009 14.00684,-6.55357 14.00684,-6.55357 0,0 8.74927,6.5867 13.99794,6.63693 5.2172,0.0499 13.90079,-6.32665 13.90079,-6.32665 5.52831,4.55029 9.91242,6.21702 13.75181,6.51098"
           id="path3930"
           sodipodi:nodetypes="ccscscc" /></g><g
         id="g3940"
         transform="translate(-277.3109,46.935161)"><circle
           style="fill:none;fill-opacity:1;stroke:#727273;stroke-width:5.85678;stroke-dasharray:none;stroke-dashoffset:10;stroke-opacity:1"
           id="circle3932"
           cx="616.70294"
           cy="565.76202"
           r="37.966457" /><ellipse
           style="fill:#727273;fill-opacity:1;stroke:#727273;stroke-width:5.85678;stroke-linecap:butt;stroke-linejoin:round;stroke-dasharray:none;stroke-dashoffset:10;stroke-opacity:1;paint-order:normal"
           id="ellipse3938"
           cx="616.86633"
           cy="566.01599"
           rx="12.725097"
           ry="12.409231" /></g><g
         id="g3948"
         style="fill:#727273;fill-opacity:1;stroke-width:0;stroke-dasharray:none"
         transform="matrix(0.07704868,0.43696474,-0.43696474,0.07704868,347.70102,596.13073)"><path
           style="fill:#727273;fill-opacity:1;stroke:none;stroke-width:0.949214px;stroke-linecap:butt;stroke-linejoin:miter;stroke-opacity:1"
           d="m -104.60978,-209.61734 c 0,0 13.580524,69.58424 42.01941,93.93225 26.408144,22.60939 94.732144,28.70788 94.732144,28.70788 0,0 -26.4982602,-71.57816 -52.14005,-94.53282 -25.55179,-22.87408 -84.611504,-28.10731 -84.611504,-28.10731 z"
           id="path3942"
           sodipodi:nodetypes="cscsc" /><path
           style="fill:#727273;fill-opacity:1;stroke:none;stroke-width:0.702766px;stroke-linecap:butt;stroke-linejoin:miter;stroke-opacity:1"
           d="m 5.4837038,-185.69036 c 0,0 23.9114102,-41.16419 13.4029302,-65.9493 -9.7581002,-23.01527 -61.77472,-56.38729 -61.77472,-56.38729 0,0 -17.32106,48.12639 -8.23507,71.04192 9.05412,22.83512 56.6068598,51.29467 56.6068598,51.29467 z"
           id="path3944"
           sodipodi:nodetypes="cscsc" /><path
           style="fill:#727273;fill-opacity:1;stroke:none;stroke-width:0.765234px;stroke-linecap:butt;stroke-linejoin:miter;stroke-opacity:1"
           d="m 50.047124,-232.8922 c 0,0 -27.32138,46.12565 -24.10426,73.94104 3.5449,30.64945 44.55945,71.51359 44.55945,71.51359 0,0 26.05205,-53.37945 20.93245,-83.99997 -4.63278,-27.70867 -41.38764,-61.45466 -41.38764,-61.45466 z"
           id="path3946"
           sodipodi:nodetypes="cscsc" /></g></g></g></svg>
