<?xml version="1.0" encoding="UTF-8" standalone="no"?>
<!-- Created with Inkscape (http://www.inkscape.org/) -->

<svg
   version="1.1"
   id="svg55"
   width="226.88373"
   height="218.55069"
   viewBox="0 0 226.88373 218.55069"
   sodipodi:docname="permaplant_illustration_04.svg"
   xml:space="preserve"
   inkscape:version="1.2.2 (b0a8486541, 2022-12-01)"
   xmlns:inkscape="http://www.inkscape.org/namespaces/inkscape"
   xmlns:sodipodi="http://sodipodi.sourceforge.net/DTD/sodipodi-0.dtd"
   xmlns="http://www.w3.org/2000/svg"
   xmlns:svg="http://www.w3.org/2000/svg"><defs
     id="defs59" /><sodipodi:namedview
     id="namedview57"
     pagecolor="#ffffff"
     bordercolor="#666666"
     borderopacity="1.0"
     inkscape:showpageshadow="2"
     inkscape:pageopacity="0.0"
     inkscape:pagecheckerboard="0"
     inkscape:deskcolor="#d1d1d1"
     showgrid="false"
     inkscape:zoom="1.5008893"
     inkscape:cx="261.17849"
     inkscape:cy="66.627167"
     inkscape:window-width="1920"
     inkscape:window-height="1056"
     inkscape:window-x="1920"
     inkscape:window-y="24"
     inkscape:window-maximized="1"
     inkscape:current-layer="g1906" /><g
     inkscape:groupmode="layer"
     id="g1906"
     inkscape:label="Image 3"
     transform="translate(-762.54625,-260.12634)"><g
       id="g3248"
       style="fill:#727273;fill-opacity:1;stroke-width:0;stroke-dasharray:none"
       transform="matrix(0.09096767,0.51590329,-0.51590329,0.09096767,834.41929,386.99966)"><path
         style="fill:#727273;fill-opacity:1;stroke:none;stroke-width:0.949214px;stroke-linecap:butt;stroke-linejoin:miter;stroke-opacity:1"
         d="m -104.60978,-209.61734 c 0,0 13.580524,69.58424 42.01941,93.93225 26.408144,22.60939 94.732144,28.70788 94.732144,28.70788 0,0 -26.4982602,-71.57816 -52.14005,-94.53282 -25.55179,-22.87408 -84.611504,-28.10731 -84.611504,-28.10731 z"
         id="path3242"
         sodipodi:nodetypes="cscsc" /><path
         style="fill:#727273;fill-opacity:1;stroke:none;stroke-width:0.702766px;stroke-linecap:butt;stroke-linejoin:miter;stroke-opacity:1"
         d="m 5.4837038,-185.69036 c 0,0 23.9114102,-41.16419 13.4029302,-65.9493 -9.7581002,-23.01527 -61.77472,-56.38729 -61.77472,-56.38729 0,0 -17.32106,48.12639 -8.23507,71.04192 9.05412,22.83512 56.6068598,51.29467 56.6068598,51.29467 z"
         id="path3244"
         sodipodi:nodetypes="cscsc" /><path
         style="fill:#727273;fill-opacity:1;stroke:none;stroke-width:0.765234px;stroke-linecap:butt;stroke-linejoin:miter;stroke-opacity:1"
         d="m 50.047124,-232.8922 c 0,0 -27.32138,46.12565 -24.10426,73.94104 3.5449,30.64945 44.55945,71.51359 44.55945,71.51359 0,0 26.05205,-53.37945 20.93245,-83.99997 -4.63278,-27.70867 -41.38764,-61.45466 -41.38764,-61.45466 z"
         id="path3246"
         sodipodi:nodetypes="cscsc" /></g><g
       id="g3258"
       transform="matrix(0.39027751,0,0,0.39027751,693.02042,242.28495)"
       style="stroke:#727273;stroke-opacity:1"><path
         style="fill:none;stroke:#727273;stroke-width:17.3333;stroke-linecap:butt;stroke-linejoin:round;stroke-dasharray:none;stroke-opacity:1;paint-order:normal"
         d="m 197.82032,299.29215 c 14.23704,1.6153 26.02411,-6.7657 37.29785,-17.24118 0,0 23.7279,17.47224 37.93449,17.4476 14.29716,-0.0248 37.84042,-17.70492 37.84042,-17.70492 0,0 23.63675,17.79442 37.81637,17.93011 14.09461,0.13487 37.55392,-17.09187 37.55392,-17.09187 14.9351,12.29291 26.77906,16.79569 37.15144,17.58986"
         id="path3250"
         sodipodi:nodetypes="ccscscc" /><path
         style="fill:none;stroke:#727273;stroke-width:17.3333;stroke-linecap:butt;stroke-linejoin:round;stroke-dasharray:none;stroke-opacity:1;paint-order:normal"
         d="m 198.16435,345.4451 c 14.23704,1.6153 26.02411,-6.7657 37.29785,-17.24118 0,0 23.7279,17.47224 37.93449,17.4476 14.29716,-0.0248 37.84042,-17.70492 37.84042,-17.70492 0,0 23.63675,17.79442 37.81637,17.93011 14.09461,0.13487 37.55392,-17.09187 37.55392,-17.09187 14.9351,12.29291 26.77906,16.79569 37.15144,17.58986"
         id="path3252"
         sodipodi:nodetypes="ccscscc" /><path
         style="fill:none;stroke:#727273;stroke-width:17.3333;stroke-linecap:butt;stroke-linejoin:round;stroke-dasharray:none;stroke-opacity:1;paint-order:normal"
         d="m 197.86396,391.03965 c 14.23704,1.6153 26.02411,-6.7657 37.29785,-17.24118 0,0 23.7279,17.47224 37.93449,17.4476 14.29716,-0.0248 37.84042,-17.70492 37.84042,-17.70492 0,0 23.63675,17.79442 37.81637,17.93011 14.09461,0.13487 37.55392,-17.09187 37.55392,-17.09187 14.9351,12.29291 26.77906,16.79569 37.15144,17.58986"
         id="path3254"
         sodipodi:nodetypes="ccscscc" /><path
         style="fill:none;stroke:#727273;stroke-width:17.3333;stroke-linecap:butt;stroke-linejoin:round;stroke-dasharray:none;stroke-opacity:1;paint-order:normal"
         d="m 198.1462,437.62602 c 14.23704,1.6153 26.02411,-6.7657 37.29785,-17.24118 0,0 23.7279,17.47224 37.93449,17.4476 14.29716,-0.0248 37.84042,-17.70492 37.84042,-17.70492 0,0 23.63675,17.79442 37.81637,17.93011 14.09461,0.13487 37.55392,-17.09187 37.55392,-17.09187 14.9351,12.29291 26.77906,16.79569 37.15144,17.58986"
         id="path3256"
         sodipodi:nodetypes="ccscscc" /></g><g
       id="g3287"
       transform="translate(20.337878,-10.597599)"><circle
         style="fill:none;fill-opacity:1;stroke:#727273;stroke-width:5.26226;stroke-dasharray:none;stroke-dashoffset:10;stroke-opacity:1"
         id="circle3260"
         cx="851.82153"
         cy="307.46759"
         r="34.112503" /><ellipse
         style="fill:#727273;fill-opacity:1;stroke:#727273;stroke-width:5.26227;stroke-linecap:butt;stroke-linejoin:round;stroke-dasharray:none;stroke-dashoffset:10;stroke-opacity:1;paint-order:normal"
         id="ellipse3266"
         cx="851.96832"
         cy="307.69574"
         rx="11.433379"
         ry="11.149577" /></g><path
       style="fill:none;stroke:#727273;stroke-width:4;stroke-linecap:butt;stroke-linejoin:miter;stroke-dasharray:none;stroke-opacity:1"
       d="m 871.85405,344.77419 -1.8913,86.67656 -106.47024,-0.77583 215.86486,2.29934"
       id="path3272" /><text
       xml:space="preserve"
       style="font-style:normal;font-weight:normal;font-size:40px;line-height:1.25;font-family:sans-serif;fill:#727273;fill-opacity:1;stroke:none;stroke-opacity:1"
       x="759.50629"
       y="470.99704"
       id="text3291"><tspan
         sodipodi:role="line"
         id="tspan3289"
         x="759.50629"
         y="470.99704"
         style="font-style:normal;font-variant:normal;font-weight:normal;font-stretch:normal;font-family:'URW Gothic';-inkscape-font-specification:'URW Gothic';fill:#727273;fill-opacity:1;stroke:none;stroke-opacity:1">Permaplant</tspan></text></g></svg>
