<?xml version="1.0" encoding="UTF-8" standalone="no"?>
<!-- Created with Inkscape (http://www.inkscape.org/) -->

<svg
   version="1.1"
   id="svg55"
   width="111.23453"
   height="124.03381"
   viewBox="0 0 111.23453 124.03381"
   sodipodi:docname="permaplant_illustration_12.svg"
   xml:space="preserve"
   inkscape:version="1.2.2 (b0a8486541, 2022-12-01)"
   inkscape:export-filename="permaplant_illustration_12.png"
   inkscape:export-xdpi="604.12897"
   inkscape:export-ydpi="604.12897"
   xmlns:inkscape="http://www.inkscape.org/namespaces/inkscape"
   xmlns:sodipodi="http://sodipodi.sourceforge.net/DTD/sodipodi-0.dtd"
   xmlns="http://www.w3.org/2000/svg"
   xmlns:svg="http://www.w3.org/2000/svg"><defs
     id="defs59" /><sodipodi:namedview
     id="namedview57"
     pagecolor="#ffffff"
     bordercolor="#666666"
     borderopacity="1.0"
     inkscape:showpageshadow="2"
     inkscape:pageopacity="0.0"
     inkscape:pagecheckerboard="0"
     inkscape:deskcolor="#d1d1d1"
     showgrid="false"
     inkscape:zoom="3.0017786"
     inkscape:cx="13.991705"
     inkscape:cy="62.962672"
     inkscape:window-width="1920"
     inkscape:window-height="1056"
     inkscape:window-x="1920"
     inkscape:window-y="24"
     inkscape:window-maximized="1"
     inkscape:current-layer="layer2" /><g
     inkscape:groupmode="layer"
     id="layer2"
     inkscape:label="Image 2"
     style="display:inline"
     transform="translate(-338.92828,-540.43915)"><g
       id="g1715"
       transform="matrix(0.47139182,0,0,0.47139182,448.05251,312.69543)"><path
         style="fill:#b9fc73;fill-opacity:1;stroke:#5a9d41;stroke-width:4.3309;stroke-linecap:butt;stroke-linejoin:miter;stroke-dasharray:none;stroke-opacity:1"
         d="M -0.30188017,584.77962 C -44.070547,602.00235 -74.037587,584.89267 -103.40815,610.56974 c -29.37059,25.67703 -20.13578,53.38662 -13.31222,60.8953 6.82353,7.50866 30.557305,19.25467 60.194934,-5.72613 29.637639,-24.9808 32.852267,-38.3653 56.22355583,-80.95929 z"
         id="path1717"
         sodipodi:nodetypes="czzzc" /><path
         style="fill:#b9fc73;fill-opacity:1;stroke:#5a9d41;stroke-width:4.3309;stroke-linecap:butt;stroke-linejoin:miter;stroke-dasharray:none;stroke-opacity:1"
         d="m -96.205678,487.67511 c -42.660862,46.69137 -60.036532,47.12217 -63.659772,67.67057 -3.62323,20.5484 21.29531,47.2494 28.3949,72.9762 23.96517,-31.97446 54.115674,-44.4791 57.832252,-65.55684 3.716578,-21.07774 -12.047417,-27.17378 -22.56738,-75.08993 z"
         id="path1719"
         sodipodi:nodetypes="czczc" /><path
         style="fill:#b9fc73;fill-opacity:1;stroke:#5a9d41;stroke-width:4.3309;stroke-linecap:butt;stroke-linejoin:miter;stroke-dasharray:none;stroke-opacity:1"
         d="m -227.28623,552.5362 c 15.87214,40.33638 0.10419,67.95342 23.76768,95.02076 23.66347,27.06738 49.20009,18.55675 56.11993,12.26829 6.91986,-6.28843 17.74474,-28.16103 -5.27708,-55.47449 -23.02183,-27.31348 -35.35672,-30.27602 -74.61053,-51.81456 z"
         id="path1721"
         sodipodi:nodetypes="czzzc" /><path
         style="fill:#b9fc73;fill-opacity:1;stroke:#5a9d41;stroke-width:4.3309;stroke-linecap:butt;stroke-linejoin:miter;stroke-dasharray:none;stroke-opacity:1"
         d="m -133.04376,636.42834 -4.50535,106.80666 10.93133,0.70419 -3.08169,-107.22056 z"
         id="path1723" /></g></g></svg>
