<?xml version="1.0" encoding="UTF-8" standalone="no"?>
<!-- Created with Inkscape (http://www.inkscape.org/) -->

<svg
   version="1.1"
   id="svg55"
   width="131.25793"
   height="280.00635"
   viewBox="0 0 131.25794 280.00635"
   sodipodi:docname="permaplant_illustration_01.svg"
   xml:space="preserve"
   inkscape:version="1.2.2 (b0a8486541, 2022-12-01)"
   xmlns:inkscape="http://www.inkscape.org/namespaces/inkscape"
   xmlns:sodipodi="http://sodipodi.sourceforge.net/DTD/sodipodi-0.dtd"
   xmlns="http://www.w3.org/2000/svg"
   xmlns:svg="http://www.w3.org/2000/svg"><defs
     id="defs59" /><sodipodi:namedview
     id="namedview57"
     pagecolor="#ffffff"
     bordercolor="#666666"
     borderopacity="1.0"
     inkscape:showpageshadow="2"
     inkscape:pageopacity="0.0"
     inkscape:pagecheckerboard="0"
     inkscape:deskcolor="#d1d1d1"
     showgrid="false"
     inkscape:zoom="0.75044464"
     inkscape:cx="53.301733"
     inkscape:cy="117.26381"
     inkscape:window-width="941"
     inkscape:window-height="1032"
     inkscape:window-x="1930"
     inkscape:window-y="34"
     inkscape:window-maximized="1"
     inkscape:current-layer="g1906" /><g
     inkscape:groupmode="layer"
     id="g1906"
     inkscape:label="Image 3"
     transform="translate(-40.332782,-41.754547)"><g
       id="g3727"
       transform="translate(-488.75841,-355.14414)"
       style="display:inline"
       inkscape:export-filename="permaplant_illustration_01.png"
       inkscape:export-xdpi="365.69217"
       inkscape:export-ydpi="365.69217"><g
         id="g2567"
         transform="matrix(0.42676706,0,0,0.42676706,459.55885,486.0561)"
         style="stroke:#727273;stroke-opacity:1"><path
           style="fill:none;stroke:#727273;stroke-width:17.3333;stroke-linecap:butt;stroke-linejoin:round;stroke-dasharray:none;stroke-opacity:1;paint-order:normal"
           d="m 197.82032,299.29215 c 14.23704,1.6153 26.02411,-6.7657 37.29785,-17.24118 0,0 23.7279,17.47224 37.93449,17.4476 14.29716,-0.0248 37.84042,-17.70492 37.84042,-17.70492 0,0 23.63675,17.79442 37.81637,17.93011 14.09461,0.13487 37.55392,-17.09187 37.55392,-17.09187 14.9351,12.29291 26.77906,16.79569 37.15144,17.58986"
           id="path2559"
           sodipodi:nodetypes="ccscscc" /><path
           style="fill:none;stroke:#727273;stroke-width:17.3333;stroke-linecap:butt;stroke-linejoin:round;stroke-dasharray:none;stroke-opacity:1;paint-order:normal"
           d="m 198.16435,345.4451 c 14.23704,1.6153 26.02411,-6.7657 37.29785,-17.24118 0,0 23.7279,17.47224 37.93449,17.4476 14.29716,-0.0248 37.84042,-17.70492 37.84042,-17.70492 0,0 23.63675,17.79442 37.81637,17.93011 14.09461,0.13487 37.55392,-17.09187 37.55392,-17.09187 14.9351,12.29291 26.77906,16.79569 37.15144,17.58986"
           id="path2561"
           sodipodi:nodetypes="ccscscc" /><path
           style="fill:none;stroke:#727273;stroke-width:17.3333;stroke-linecap:butt;stroke-linejoin:round;stroke-dasharray:none;stroke-opacity:1;paint-order:normal"
           d="m 197.86396,391.03965 c 14.23704,1.6153 26.02411,-6.7657 37.29785,-17.24118 0,0 23.7279,17.47224 37.93449,17.4476 14.29716,-0.0248 37.84042,-17.70492 37.84042,-17.70492 0,0 23.63675,17.79442 37.81637,17.93011 14.09461,0.13487 37.55392,-17.09187 37.55392,-17.09187 14.9351,12.29291 26.77906,16.79569 37.15144,17.58986"
           id="path2563"
           sodipodi:nodetypes="ccscscc" /><path
           style="fill:none;stroke:#727273;stroke-width:17.3333;stroke-linecap:butt;stroke-linejoin:round;stroke-dasharray:none;stroke-opacity:1;paint-order:normal"
           d="m 198.1462,437.62602 c 14.23704,1.6153 26.02411,-6.7657 37.29785,-17.24118 0,0 23.7279,17.47224 37.93449,17.4476 14.29716,-0.0248 37.84042,-17.70492 37.84042,-17.70492 0,0 23.63675,17.79442 37.81637,17.93011 14.09461,0.13487 37.55392,-17.09187 37.55392,-17.09187 14.9351,12.29291 26.77906,16.79569 37.15144,17.58986"
           id="path2565"
           sodipodi:nodetypes="ccscscc" /></g><g
         id="g2577"
         transform="matrix(0.5641384,-0.09947282,0.09947282,0.5641384,602.34975,112.21258)"
         style="fill:#727273;fill-opacity:1;stroke-width:0;stroke-dasharray:none"><g
           id="g2575"
           transform="matrix(1.0808562,0,0,1.0808562,-906.51968,172.66341)"
           style="fill:#727273;fill-opacity:1;stroke:#5a9d41;stroke-width:0;stroke-dasharray:none;stroke-opacity:1"><path
             style="fill:#727273;fill-opacity:1;stroke:#5a9d41;stroke-width:0;stroke-linecap:butt;stroke-linejoin:miter;stroke-dasharray:none;stroke-opacity:1"
             d="m 838.42587,381.28681 c -40.49444,15.93434 -68.21972,0.10459 -95.39314,23.86082 -27.17345,23.7562 -18.62947,49.3929 -12.31637,56.33987 6.31308,6.94696 28.27139,17.81428 55.6919,-5.29777 27.42052,-23.11205 30.39467,-35.49528 52.01761,-74.90292 z"
             id="path2569"
             sodipodi:nodetypes="czzzc" /><path
             style="fill:#727273;fill-opacity:1;stroke:#5a9d41;stroke-width:0;stroke-linecap:butt;stroke-linejoin:miter;stroke-dasharray:none;stroke-opacity:1"
             d="m 749.6964,291.44645 c -39.46951,43.1985 -55.54535,43.59707 -58.89754,62.6083 -3.35219,19.01122 19.70226,43.71479 26.27075,67.51703 22.17239,-29.58253 50.06741,-41.15173 53.50596,-60.6527 3.43855,-19.50096 -11.14618,-25.14097 -20.87917,-69.47263 z"
             id="path2571"
             sodipodi:nodetypes="czczc" /><path
             style="fill:#727273;fill-opacity:1;stroke:#5a9d41;stroke-width:0;stroke-linecap:butt;stroke-linejoin:miter;stroke-dasharray:none;stroke-opacity:1"
             d="m 628.42166,351.45544 c 14.68479,37.31891 0.0964,62.86999 21.98968,87.91249 21.89326,25.04253 45.51955,17.16856 51.92174,11.35053 6.4022,-5.81801 16.4173,-26.05437 -4.88232,-51.32458 -21.29962,-25.27023 -32.71177,-28.01115 -69.0291,-47.93844 z"
             id="path2573"
             sodipodi:nodetypes="czzzc" /></g></g><g
         id="g2591"
         transform="matrix(2.0060144,0,0,2.0060144,-325.15922,-589.98359)"
         style="display:inline"><g
           id="g2583"
           transform="matrix(0.33804762,0,0,0.33804762,381.10735,497.43881)"
           style="fill:none;fill-opacity:1;stroke:#727273;stroke-width:8.48551;stroke-dasharray:none;stroke-opacity:1"><g
             id="g2581"
             style="fill:none;fill-opacity:1;stroke:#727273;stroke-width:8.48551;stroke-dasharray:none;stroke-opacity:1"><circle
               style="fill:none;fill-opacity:1;stroke:#727273;stroke-width:8.48551;stroke-dasharray:none;stroke-dashoffset:10;stroke-opacity:1"
               id="circle2579"
               cx="226.41068"
               cy="213.42375"
               r="55.007133" /></g></g><ellipse
           style="fill:#727273;fill-opacity:1;stroke:#727273;stroke-width:2.86851;stroke-linecap:butt;stroke-linejoin:round;stroke-dasharray:none;stroke-dashoffset:10;stroke-opacity:1;paint-order:normal"
           id="ellipse2585"
           cx="457.72498"
           cy="569.71057"
           rx="6.2324371"
           ry="6.077734" /></g></g></g></svg>
