<?xml version="1.0" encoding="UTF-8" standalone="no"?>
<!-- Created with Inkscape (http://www.inkscape.org/) -->

<svg
   version="1.1"
   id="svg55"
   width="325.77533"
   height="147.18878"
   viewBox="0 0 325.77533 147.18878"
   sodipodi:docname="permaplant_illustration_06.svg"
   xml:space="preserve"
   inkscape:version="1.2.2 (b0a8486541, 2022-12-01)"
   inkscape:export-filename="permaplant_illustration_06.png"
   inkscape:export-xdpi="96"
   inkscape:export-ydpi="96"
   xmlns:inkscape="http://www.inkscape.org/namespaces/inkscape"
   xmlns:sodipodi="http://sodipodi.sourceforge.net/DTD/sodipodi-0.dtd"
   xmlns="http://www.w3.org/2000/svg"
   xmlns:svg="http://www.w3.org/2000/svg"><defs
     id="defs59" /><sodipodi:namedview
     id="namedview57"
     pagecolor="#ffffff"
     bordercolor="#666666"
     borderopacity="1.0"
     inkscape:showpageshadow="2"
     inkscape:pageopacity="0.0"
     inkscape:pagecheckerboard="0"
     inkscape:deskcolor="#d1d1d1"
     showgrid="false"
     inkscape:zoom="3.0017786"
     inkscape:cx="120.59517"
     inkscape:cy="65.794327"
     inkscape:window-width="941"
     inkscape:window-height="509"
     inkscape:window-x="1930"
     inkscape:window-y="34"
     inkscape:window-maximized="1"
     inkscape:current-layer="g1906" /><g
     inkscape:groupmode="layer"
     id="g1906"
     inkscape:label="Image 3"
     transform="translate(-394.44457,-62.44408)"><g
       id="g3710"
       transform="translate(134.8813,-96.305087)"><g
         id="g2607"
         transform="matrix(0.45013488,0,0,0.45013488,170.95725,67.51614)"
         style="stroke:#727273;stroke-opacity:1"><path
           style="fill:none;stroke:#727273;stroke-width:17.3333;stroke-linecap:butt;stroke-linejoin:round;stroke-dasharray:none;stroke-opacity:1;paint-order:normal"
           d="m 197.82032,299.29215 c 14.23704,1.6153 26.02411,-6.7657 37.29785,-17.24118 0,0 23.7279,17.47224 37.93449,17.4476 14.29716,-0.0248 37.84042,-17.70492 37.84042,-17.70492 0,0 23.63675,17.79442 37.81637,17.93011 14.09461,0.13487 37.55392,-17.09187 37.55392,-17.09187 14.9351,12.29291 26.77906,16.79569 37.15144,17.58986"
           id="path2599"
           sodipodi:nodetypes="ccscscc" /><path
           style="fill:none;stroke:#727273;stroke-width:17.3333;stroke-linecap:butt;stroke-linejoin:round;stroke-dasharray:none;stroke-opacity:1;paint-order:normal"
           d="m 198.16435,345.4451 c 14.23704,1.6153 26.02411,-6.7657 37.29785,-17.24118 0,0 23.7279,17.47224 37.93449,17.4476 14.29716,-0.0248 37.84042,-17.70492 37.84042,-17.70492 0,0 23.63675,17.79442 37.81637,17.93011 14.09461,0.13487 37.55392,-17.09187 37.55392,-17.09187 14.9351,12.29291 26.77906,16.79569 37.15144,17.58986"
           id="path2601"
           sodipodi:nodetypes="ccscscc" /><path
           style="fill:none;stroke:#727273;stroke-width:17.3333;stroke-linecap:butt;stroke-linejoin:round;stroke-dasharray:none;stroke-opacity:1;paint-order:normal"
           d="m 197.86396,391.03965 c 14.23704,1.6153 26.02411,-6.7657 37.29785,-17.24118 0,0 23.7279,17.47224 37.93449,17.4476 14.29716,-0.0248 37.84042,-17.70492 37.84042,-17.70492 0,0 23.63675,17.79442 37.81637,17.93011 14.09461,0.13487 37.55392,-17.09187 37.55392,-17.09187 14.9351,12.29291 26.77906,16.79569 37.15144,17.58986"
           id="path2603"
           sodipodi:nodetypes="ccscscc" /><path
           style="fill:none;stroke:#727273;stroke-width:17.3333;stroke-linecap:butt;stroke-linejoin:round;stroke-dasharray:none;stroke-opacity:1;paint-order:normal"
           d="m 198.1462,437.62602 c 14.23704,1.6153 26.02411,-6.7657 37.29785,-17.24118 0,0 23.7279,17.47224 37.93449,17.4476 14.29716,-0.0248 37.84042,-17.70492 37.84042,-17.70492 0,0 23.63675,17.79442 37.81637,17.93011 14.09461,0.13487 37.55392,-17.09187 37.55392,-17.09187 14.9351,12.29291 26.77906,16.79569 37.15144,17.58986"
           id="path2605"
           sodipodi:nodetypes="ccscscc" /></g><g
         id="g2617"
         transform="matrix(0.1049195,0.59502805,-0.59502805,0.1049195,841.32539,328.82525)"
         style="fill:none;fill-opacity:1;stroke:#727273;stroke-width:7.00374;stroke-dasharray:none;stroke-opacity:1"><path
           style="fill:none;fill-opacity:1;stroke:#727273;stroke-width:7.00373;stroke-linecap:butt;stroke-linejoin:miter;stroke-dasharray:none;stroke-opacity:1"
           d="m -134.5168,507.71884 c -43.76867,17.22273 -73.73571,0.11305 -103.10627,25.79012 -29.37059,25.67703 -20.13578,53.38662 -13.31222,60.89529 6.82353,7.50867 30.55731,19.25468 60.19493,-5.72612 29.63764,-24.98081 32.85227,-38.3653 56.22356,-80.95929 z"
           id="path2609"
           sodipodi:nodetypes="czzzc" /><path
           style="fill:none;fill-opacity:1;stroke:#727273;stroke-width:7.00373;stroke-linecap:butt;stroke-linejoin:miter;stroke-dasharray:none;stroke-opacity:1"
           d="m -227.34611,397.81958 c -42.66087,46.69136 -60.03654,47.12216 -63.65977,67.67057 -3.62324,20.54839 21.29531,47.2494 28.3949,72.9762 23.96516,-31.97446 54.11567,-44.47911 57.83225,-65.55685 3.71658,-21.07773 -12.04742,-27.17377 -22.56738,-75.08992 z"
           id="path2611"
           sodipodi:nodetypes="czczc" /><path
           style="fill:none;fill-opacity:1;stroke:#727273;stroke-width:7.00373;stroke-linecap:butt;stroke-linejoin:miter;stroke-dasharray:none;stroke-opacity:1"
           d="m -361.50115,475.47542 c 15.87214,40.33637 0.10419,67.95342 23.76768,95.02076 23.66347,27.06737 49.20009,18.55674 56.11993,12.26829 6.91986,-6.28843 17.74474,-28.16103 -5.27708,-55.47449 -23.02183,-27.31349 -35.35672,-30.27603 -74.61053,-51.81456 z"
           id="path2613"
           sodipodi:nodetypes="czzzc" /></g><g
         id="g2623"
         transform="matrix(0.71525963,0,0,0.71525963,246.08657,76.46978)"
         style="fill:none;fill-opacity:1;stroke:#727273;stroke-width:8.48551;stroke-dasharray:none;stroke-opacity:1"><circle
           style="fill:none;fill-opacity:1;stroke:#727273;stroke-width:8.48551;stroke-dasharray:none;stroke-dashoffset:10;stroke-opacity:1"
           id="circle2619"
           cx="226.41068"
           cy="213.42375"
           r="55.007133" /></g><ellipse
         style="fill:#727273;fill-opacity:1;stroke:#727273;stroke-width:6.06935;stroke-linecap:butt;stroke-linejoin:round;stroke-dasharray:none;stroke-dashoffset:10;stroke-opacity:1;paint-order:normal"
         id="ellipse2625"
         cx="408.19839"
         cy="229.38632"
         rx="13.186931"
         ry="12.859602" /></g></g></svg>
