<?xml version="1.0" encoding="UTF-8" standalone="no"?>
<!-- Created with Inkscape (http://www.inkscape.org/) -->

<svg
   version="1.1"
   id="svg55"
   width="224.58505"
   height="186.91141"
   viewBox="0 0 224.58506 186.91141"
   sodipodi:docname="permaplant_illustration_03.svg"
   xml:space="preserve"
   inkscape:version="1.2.2 (b0a8486541, 2022-12-01)"
   inkscape:export-filename="permaplant_illustration_03.png"
   inkscape:export-xdpi="213.72749"
   inkscape:export-ydpi="213.72749"
   xmlns:inkscape="http://www.inkscape.org/namespaces/inkscape"
   xmlns:sodipodi="http://sodipodi.sourceforge.net/DTD/sodipodi-0.dtd"
   xmlns="http://www.w3.org/2000/svg"
   xmlns:svg="http://www.w3.org/2000/svg"><defs
     id="defs59" /><sodipodi:namedview
     id="namedview57"
     pagecolor="#ffffff"
     bordercolor="#666666"
     borderopacity="1.0"
     inkscape:showpageshadow="2"
     inkscape:pageopacity="0.0"
     inkscape:pagecheckerboard="0"
     inkscape:deskcolor="#d1d1d1"
     showgrid="false"
     inkscape:zoom="1.5008893"
     inkscape:cx="108.26915"
     inkscape:cy="140.58332"
     inkscape:window-width="1896"
     inkscape:window-height="1032"
     inkscape:window-x="1930"
     inkscape:window-y="34"
     inkscape:window-maximized="1"
     inkscape:current-layer="svg55" /><g
     id="g4097"
     inkscape:export-filename="g4097.svg"
     inkscape:export-xdpi="96"
     inkscape:export-ydpi="96"
     transform="translate(-458.97097,-249.5141)"><g
       id="g1994"
       transform="matrix(0.33204193,0.5751135,-0.5751135,0.33204193,995.96888,196.7643)"
       style="fill:#727273;fill-opacity:1;stroke-width:0;stroke-dasharray:none"><path
         style="fill:#727273;fill-opacity:1;stroke:#5a9d41;stroke-width:0;stroke-linecap:butt;stroke-linejoin:miter;stroke-dasharray:none;stroke-opacity:1"
         d="M -0.30188017,584.77962 C -44.070547,602.00235 -74.037587,584.89267 -103.40815,610.56974 c -29.37059,25.67703 -20.13578,53.38662 -13.31222,60.8953 6.82353,7.50866 30.557305,19.25467 60.194934,-5.72613 29.637639,-24.9808 32.852267,-38.3653 56.22355583,-80.95929 z"
         id="path1986"
         sodipodi:nodetypes="czzzc" /><path
         style="fill:#727273;fill-opacity:1;stroke:#5a9d41;stroke-width:0;stroke-linecap:butt;stroke-linejoin:miter;stroke-dasharray:none;stroke-opacity:1"
         d="m -96.205678,487.67511 c -42.660862,46.69137 -60.036532,47.12217 -63.659772,67.67057 -3.62323,20.5484 21.29531,47.2494 28.3949,72.9762 23.96517,-31.97446 54.115674,-44.4791 57.832252,-65.55684 3.716578,-21.07774 -12.047417,-27.17378 -22.56738,-75.08993 z"
         id="path1988"
         sodipodi:nodetypes="czczc" /><path
         style="fill:#727273;fill-opacity:1;stroke:#5a9d41;stroke-width:0;stroke-linecap:butt;stroke-linejoin:miter;stroke-dasharray:none;stroke-opacity:1"
         d="m -227.28623,552.5362 c 15.87214,40.33638 0.10419,67.95342 23.76768,95.02076 23.66347,27.06738 49.20009,18.55675 56.11993,12.26829 6.91986,-6.28843 17.74474,-28.16103 -5.27708,-55.47449 -23.02183,-27.31348 -35.35672,-30.27602 -74.61053,-51.81456 z"
         id="path1990"
         sodipodi:nodetypes="czzzc" /></g><g
       id="g2000"
       transform="matrix(0.78614137,0,0,0.78614137,324.22357,151.8354)"
       style="fill:#727273;fill-opacity:1;stroke-width:0;stroke-dasharray:none"><circle
         style="fill:#727273;fill-opacity:1;stroke:#ecd517;stroke-width:0;stroke-dasharray:none;stroke-dashoffset:10;stroke-opacity:1"
         id="circle1996"
         cx="226.41068"
         cy="213.42375"
         r="55.007133" /></g><path
       style="display:inline;fill:#727273;fill-opacity:1;stroke:#373bae;stroke-width:0;stroke-linecap:butt;stroke-linejoin:miter;stroke-dasharray:none;stroke-opacity:1"
       d="m 548.97432,344.42618 c -13.63135,27.47705 -31.11193,36.7544 -31.07582,60.94928 0.0362,24.19486 23.29725,31.17606 32.05214,31.04833 8.75489,-0.12774 29.85985,-6.43094 30.42817,-30.46677 0.56823,-24.0358 -16.96222,-33.24277 -31.40449,-61.53084 z"
       id="path2002"
       sodipodi:nodetypes="czzzc" /></g></svg>
