<?xml version="1.0" encoding="UTF-8" standalone="no"?>
<!-- Created with Inkscape (http://www.inkscape.org/) -->

<svg
   version="1.1"
   id="svg55"
   width="193.77197"
   height="176.22797"
   viewBox="0 0 193.77198 176.22797"
   sodipodi:docname="permaplant_illustration_07.svg"
   xml:space="preserve"
   inkscape:version="1.2.2 (b0a8486541, 2022-12-01)"
   xmlns:inkscape="http://www.inkscape.org/namespaces/inkscape"
   xmlns:sodipodi="http://sodipodi.sourceforge.net/DTD/sodipodi-0.dtd"
   xmlns="http://www.w3.org/2000/svg"
   xmlns:svg="http://www.w3.org/2000/svg"><defs
     id="defs59" /><sodipodi:namedview
     id="namedview57"
     pagecolor="#ffffff"
     bordercolor="#666666"
     borderopacity="1.0"
     inkscape:showpageshadow="2"
     inkscape:pageopacity="0.0"
     inkscape:pagecheckerboard="0"
     inkscape:deskcolor="#d1d1d1"
     showgrid="false"
     inkscape:zoom="3.0017786"
     inkscape:cx="112.93305"
     inkscape:cy="60.630722"
     inkscape:window-width="1920"
     inkscape:window-height="1056"
     inkscape:window-x="1920"
     inkscape:window-y="24"
     inkscape:window-maximized="1"
     inkscape:current-layer="g1906" /><g
     inkscape:groupmode="layer"
     id="g1906"
     inkscape:label="Image 3"
     transform="translate(-791.12273,-524.14758)"><g
       id="g3049"
       transform="matrix(0.39027751,0,0,0.39027751,714.29921,495.9741)"
       style="stroke:#727273;stroke-opacity:1"><path
         style="fill:none;stroke:#727273;stroke-width:17.3333;stroke-linecap:butt;stroke-linejoin:round;stroke-dasharray:none;stroke-opacity:1;paint-order:normal"
         d="m 197.82032,299.29215 c 14.23704,1.6153 26.02411,-6.7657 37.29785,-17.24118 0,0 23.7279,17.47224 37.93449,17.4476 14.29716,-0.0248 37.84042,-17.70492 37.84042,-17.70492 0,0 23.63675,17.79442 37.81637,17.93011 14.09461,0.13487 37.55392,-17.09187 37.55392,-17.09187 14.9351,12.29291 26.77906,16.79569 37.15144,17.58986"
         id="path3041"
         sodipodi:nodetypes="ccscscc" /><path
         style="fill:none;stroke:#727273;stroke-width:17.3333;stroke-linecap:butt;stroke-linejoin:round;stroke-dasharray:none;stroke-opacity:1;paint-order:normal"
         d="m 198.16435,345.4451 c 14.23704,1.6153 26.02411,-6.7657 37.29785,-17.24118 0,0 23.7279,17.47224 37.93449,17.4476 14.29716,-0.0248 37.84042,-17.70492 37.84042,-17.70492 0,0 23.63675,17.79442 37.81637,17.93011 14.09461,0.13487 37.55392,-17.09187 37.55392,-17.09187 14.9351,12.29291 26.77906,16.79569 37.15144,17.58986"
         id="path3043"
         sodipodi:nodetypes="ccscscc" /><path
         style="fill:none;stroke:#727273;stroke-width:17.3333;stroke-linecap:butt;stroke-linejoin:round;stroke-dasharray:none;stroke-opacity:1;paint-order:normal"
         d="m 197.86396,391.03965 c 14.23704,1.6153 26.02411,-6.7657 37.29785,-17.24118 0,0 23.7279,17.47224 37.93449,17.4476 14.29716,-0.0248 37.84042,-17.70492 37.84042,-17.70492 0,0 23.63675,17.79442 37.81637,17.93011 14.09461,0.13487 37.55392,-17.09187 37.55392,-17.09187 14.9351,12.29291 26.77906,16.79569 37.15144,17.58986"
         id="path3045"
         sodipodi:nodetypes="ccscscc" /><path
         style="fill:none;stroke:#727273;stroke-width:17.3333;stroke-linecap:butt;stroke-linejoin:round;stroke-dasharray:none;stroke-opacity:1;paint-order:normal"
         d="m 198.1462,437.62602 c 14.23704,1.6153 26.02411,-6.7657 37.29785,-17.24118 0,0 23.7279,17.47224 37.93449,17.4476 14.29716,-0.0248 37.84042,-17.70492 37.84042,-17.70492 0,0 23.63675,17.79442 37.81637,17.93011 14.09461,0.13487 37.55392,-17.09187 37.55392,-17.09187 14.9351,12.29291 26.77906,16.79569 37.15144,17.58986"
         id="path3047"
         sodipodi:nodetypes="ccscscc" /></g><g
       id="g3059"
       transform="matrix(0.09096767,0.51590329,-0.51590329,0.09096767,1245.2395,647.33526)"
       style="fill:#727273;fill-opacity:1;stroke-width:0;stroke-dasharray:none"><path
         style="fill:#727273;fill-opacity:1;stroke:#5a9d41;stroke-width:0;stroke-linecap:butt;stroke-linejoin:miter;stroke-dasharray:none;stroke-opacity:1"
         d="M -0.30188017,584.77962 C -44.070547,602.00235 -74.037587,584.89267 -103.40815,610.56974 c -29.37059,25.67703 -20.13578,53.38662 -13.31222,60.8953 6.82353,7.50866 30.557305,19.25467 60.194934,-5.72613 29.637639,-24.9808 32.852267,-38.3653 56.22355583,-80.95929 z"
         id="path3051"
         sodipodi:nodetypes="czzzc" /><path
         style="fill:#727273;fill-opacity:1;stroke:#5a9d41;stroke-width:0;stroke-linecap:butt;stroke-linejoin:miter;stroke-dasharray:none;stroke-opacity:1"
         d="m -96.205678,487.67511 c -42.660862,46.69137 -60.036532,47.12217 -63.659772,67.67057 -3.62323,20.5484 21.29531,47.2494 28.3949,72.9762 23.96517,-31.97446 54.115674,-44.4791 57.832252,-65.55684 3.716578,-21.07774 -12.047417,-27.17378 -22.56738,-75.08993 z"
         id="path3053"
         sodipodi:nodetypes="czczc" /><path
         style="fill:#727273;fill-opacity:1;stroke:#5a9d41;stroke-width:0;stroke-linecap:butt;stroke-linejoin:miter;stroke-dasharray:none;stroke-opacity:1"
         d="m -227.28623,552.5362 c 15.87214,40.33638 0.10419,67.95342 23.76768,95.02076 23.66347,27.06738 49.20009,18.55675 56.11993,12.26829 6.91986,-6.28843 17.74474,-28.16103 -5.27708,-55.47449 -23.02183,-27.31348 -35.35672,-30.27602 -74.61053,-51.81456 z"
         id="path3055"
         sodipodi:nodetypes="czzzc" /></g><g
       id="g3065"
       transform="matrix(0.6201469,0,0,0.6201469,729.15344,428.53714)"
       style="fill:none;fill-opacity:1;stroke:#727273;stroke-width:8.48551;stroke-dasharray:none;stroke-opacity:1"
       inkscape:label="g3065"><circle
         style="fill:none;fill-opacity:1;stroke:#727273;stroke-width:8.48551;stroke-dasharray:none;stroke-dashoffset:10;stroke-opacity:1"
         id="circle3061"
         cx="226.41068"
         cy="213.42375"
         r="55.007133" /></g><ellipse
       style="fill:#727273;fill-opacity:1;stroke:#727273;stroke-width:5.26227;stroke-linecap:butt;stroke-linejoin:round;stroke-dasharray:none;stroke-dashoffset:10;stroke-opacity:1;paint-order:normal"
       id="ellipse3067"
       cx="869.70813"
       cy="561.11938"
       rx="11.433379"
       ry="11.149577" /><g
       id="g3087"
       transform="matrix(0.09096767,0.51590329,-0.51590329,0.09096767,1245.2395,647.33526)"
       style="fill:#727273;fill-opacity:1;stroke-width:0;stroke-dasharray:none"><g
         id="g3085"
         transform="matrix(1.0808562,0,0,1.0808562,-906.51968,172.66341)"
         style="fill:#727273;fill-opacity:1;stroke:#5a9d41;stroke-width:0;stroke-dasharray:none;stroke-opacity:1"><path
           style="fill:#727273;fill-opacity:1;stroke:#5a9d41;stroke-width:0;stroke-linecap:butt;stroke-linejoin:miter;stroke-dasharray:none;stroke-opacity:1"
           d="m 838.42587,381.28681 c -40.49444,15.93434 -68.21972,0.10459 -95.39314,23.86082 -27.17345,23.7562 -18.62947,49.3929 -12.31637,56.33987 6.31308,6.94696 28.27139,17.81428 55.6919,-5.29777 27.42052,-23.11205 30.39467,-35.49528 52.01761,-74.90292 z"
           id="path3079"
           sodipodi:nodetypes="czzzc" /><path
           style="fill:#727273;fill-opacity:1;stroke:#5a9d41;stroke-width:0;stroke-linecap:butt;stroke-linejoin:miter;stroke-dasharray:none;stroke-opacity:1"
           d="m 749.6964,291.44645 c -39.46951,43.1985 -55.54535,43.59707 -58.89754,62.6083 -3.35219,19.01122 19.70226,43.71479 26.27075,67.51703 22.17239,-29.58253 50.06741,-41.15173 53.50596,-60.6527 3.43855,-19.50096 -11.14618,-25.14097 -20.87917,-69.47263 z"
           id="path3081"
           sodipodi:nodetypes="czczc" /><path
           style="fill:#727273;fill-opacity:1;stroke:#5a9d41;stroke-width:0;stroke-linecap:butt;stroke-linejoin:miter;stroke-dasharray:none;stroke-opacity:1"
           d="m 628.42166,351.45544 c 14.68479,37.31891 0.0964,62.86999 21.98968,87.91249 21.89326,25.04253 45.51955,17.16856 51.92174,11.35053 6.4022,-5.81801 16.4173,-26.05437 -4.88232,-51.32458 -21.29962,-25.27023 -32.71177,-28.01115 -69.0291,-47.93844 z"
           id="path3083"
           sodipodi:nodetypes="czzzc" /></g></g><g
       id="g3093"
       transform="matrix(0.6201469,0,0,0.6201469,729.15344,428.53714)"
       style="fill:none;fill-opacity:1;stroke:#727273;stroke-width:8.48551;stroke-dasharray:none;stroke-opacity:1"><circle
         style="fill:none;fill-opacity:1;stroke:#727273;stroke-width:8.48551;stroke-dasharray:none;stroke-dashoffset:10;stroke-opacity:1"
         id="circle3089"
         cx="226.41068"
         cy="213.42375"
         r="55.007133" /><ellipse
         style="fill:#727273;fill-opacity:1;stroke:#727273;stroke-width:5.26227;stroke-linecap:butt;stroke-linejoin:round;stroke-dasharray:none;stroke-dashoffset:10;stroke-opacity:1;paint-order:normal"
         id="ellipse3095"
         cx="451.35721"
         cy="90.907715"
         rx="11.433379"
         ry="11.149577"
         transform="matrix(1.6125212,0,0,1.6125212,-501.17562,67.201062)" /></g></g></svg>
