<?xml version="1.0" standalone="no"?>
<!DOCTYPE svg PUBLIC "-//W3C//DTD SVG 20010904//EN" "http://www.w3.org/TR/2001/REC-SVG-20010904/DTD/svg10.dtd">
<!-- Created using Krita: https://krita.org -->
<svg xmlns="http://www.w3.org/2000/svg"
    xmlns:xlink="http://www.w3.org/1999/xlink"
    xmlns:krita="http://krita.org/namespaces/svg/krita"
    xmlns:sodipodi="http://sodipodi.sourceforge.net/DTD/sodipodi-0.dtd"
    width="280.56pt"
    height="280.56pt"
    viewBox="0 0 280.56 280.56">
<defs/>
<path id="shape0" transform="translate(53.1067117649657, 92.7398269545397)" fill="none" stroke="#808080" stroke-width="10.92" stroke-linecap="square" stroke-linejoin="bevel" d="M48.6617 133.041C30.4112 117.525 15.2479 105.985 2.46753 91.3868C-3.70339 84.338 3.49975 81.3478 4.68664 79.9742C5.64716 78.8626 15.4805 80.8599 16.7333 81.5002C34.9253 90.7977 48.5075 105.322 51.2933 98.4202C52.3729 95.7455 52.2096 89.719 51.6533 82.5802C51.0342 74.6352 49.8991 62.6189 49.1333 47.5402C48.3106 31.343 47.5828 13.7284 48.857 5.94399C49.8096 0.124804 55.9076 0.0518874 58.0211 0.00429725C60.6969 -0.0559515 64.2519 0.467852 65.87 4.75605C68.1465 10.789 67.8778 12.8957 68.2133 17.0602C69.7412 36.0257 69.2565 65.2896 70.4403 71.6915C70.4851 71.9341 71.6432 72.2421 72.4133 69.9802C73.7221 66.1361 73.2778 63.3135 76.7806 61.864C80.7463 60.2228 80.1934 60.7065 82.8533 60.6202C84.0709 60.5807 84.7861 60.6696 86.5733 61.1002C87.8233 61.4013 90.387 64.0319 91.1333 65.0602C92.2566 66.6078 92.4549 69.865 94.5684 69.7894C96.8414 69.7081 96.6927 68.093 97.0133 66.5002C97.4031 64.5635 98.599 63.2888 100.133 62.1802C102.309 60.6081 102.99 60.1544 105.293 59.9002C108.062 59.5946 110.576 60.2128 112.613 61.8202C113.323 62.3802 113.908 63.2949 115.133 65.1802C115.613 65.9182 116.167 69.5527 118.253 69.5002C121.05 69.4298 120.585 66.1618 121.373 64.8202C122.183 63.4416 124.021 62.8281 125.333 62.0602C127.281 60.9201 132.48 61.4954 134.213 62.4202C136.375 63.5732 138.11 65.0672 139.013 67.4602C139.344 68.336 139.641 71.7842 139.613 72.7402C139.415 79.4944 139.088 77.2691 139.253 81.3802C139.914 97.7833 139.205 91.6042 140.08 115.985C140.221 119.933 138.492 134.633 135.76 139.025C132.007 145.058 79.3064 154.989 51.239 141.284C48.5093 136.26 49.9626 135.347 48.6617 133.041Z" sodipodi:nodetypes="cssssscssssssssssssssssssssssssscc"/>
</svg>
