<?xml version="1.0" standalone="no"?>
<!DOCTYPE svg PUBLIC "-//W3C//DTD SVG 20010904//EN" "http://www.w3.org/TR/2001/REC-SVG-20010904/DTD/svg10.dtd">
<!-- Created using Krita: https://krita.org -->
<svg xmlns="http://www.w3.org/2000/svg"
    xmlns:xlink="http://www.w3.org/1999/xlink"
    xmlns:krita="http://krita.org/namespaces/svg/krita"
    xmlns:sodipodi="http://sodipodi.sourceforge.net/DTD/sodipodi-0.dtd"
    width="280.56pt"
    height="280.56pt"
    viewBox="0 0 280.56 280.56">
<defs/>
<path id="shape0" transform="translate(53.1067117649657, 94.6948490271862)" fill="#808080" fill-rule="evenodd" stroke="#808080" stroke-width="10.92" stroke-linecap="square" stroke-linejoin="bevel" d="M48.6617 131.086C30.4112 115.57 15.2479 104.03 2.46753 89.4318C-3.70339 82.383 3.49975 79.3928 4.68664 78.0192C5.64716 76.9076 16.5048 79.5559 18.5333 81.3452C34.4975 95.4264 50.6762 107.33 53.4533 100.425C55.2529 95.9505 54.3456 88.8458 53.8133 81.7052C53.1942 73.4001 53.4991 60.6639 52.7333 45.5852C51.9106 29.388 51.8191 12.4496 53.0933 4.66515C54.0458 -1.15404 59.8518 -0.258817 61.7333 0.705151C65.129 2.4449 64.144 4.86839 64.9733 8.98515C66.6159 17.1393 65.3102 22.4878 66.0533 28.7852C67.9771 45.0885 67.8165 66.2146 71.1603 73.3365C71.2651 73.5598 72.3632 73.8871 73.1333 71.6252C74.4421 67.7811 73.9978 64.9585 77.5006 63.5089C81.4663 61.8678 80.9134 62.3515 83.5733 62.2652C84.7909 62.2256 85.5061 62.3145 87.2933 62.7452C88.5433 63.0463 91.107 65.6769 91.8533 66.7052C92.9766 68.2528 93.1749 71.51 95.2884 71.4344C97.5614 71.3531 97.4127 69.7379 97.7333 68.1452C98.1231 66.2085 99.319 64.9338 100.853 63.8252C103.029 62.2531 103.71 61.7994 106.013 61.5452C108.782 61.2395 111.296 61.8578 113.333 63.4652C114.043 64.0252 114.628 64.9399 115.853 66.8252C116.333 67.5632 116.887 71.1976 118.973 71.1452C121.77 71.0748 121.305 67.8068 122.093 66.4652C122.903 65.0866 124.741 64.4731 126.053 63.7052C128.001 62.5651 133.2 63.1404 134.933 64.0652C137.095 65.2182 138.83 66.7122 139.733 69.1052C140.064 69.981 140.361 73.4291 140.333 74.3851C140.135 81.1394 140.768 80.474 140.573 84.9452C139.861 101.346 141.005 92.5292 140.08 114.03C139.91 117.977 138.492 132.677 135.76 137.07C132.007 143.103 79.3064 153.034 51.239 139.329C48.5093 134.305 49.9626 133.392 48.6617 131.086Z" sodipodi:nodetypes="cssssscssssssssssssssssssssssssscc"/>
</svg>
