<?xml version="1.0" encoding="iso-8859-1"?>
<!DOCTYPE svg PUBLIC "-//W3C//DTD SVG 1.1//EN" "http://www.w3.org/Graphics/SVG/1.1/DTD/svg11.dtd">
<svg height="44px" width="44px" version="1.1" id="Capa_1" xmlns="http://www.w3.org/2000/svg" xmlns:xlink="http://www.w3.org/1999/xlink"
	 viewBox="0 0 209 209" xml:space="preserve">
<path d="M201.5,112c4.143,0,7.5-3.357,7.5-7.5s-3.357-7.5-7.5-7.5H184V43.333h17.5c4.143,0,7.5-3.357,7.5-7.5s-3.357-7.5-7.5-7.5
	H184V7.5c0-4.143-3.357-7.5-7.5-7.5S169,3.357,169,7.5v20.833h-53.666V7.5c0-4.143-3.357-7.5-7.5-7.5s-7.5,3.357-7.5,7.5v20.833
	H46.667V7.5c0-4.143-3.357-7.5-7.5-7.5s-7.5,3.357-7.5,7.5v20.833H7.5c-4.143,0-7.5,3.357-7.5,7.5s3.357,7.5,7.5,7.5h24.167V97H7.5
	c-4.143,0-7.5,3.357-7.5,7.5s3.357,7.5,7.5,7.5h24.167v53.666H7.5c-4.143,0-7.5,3.357-7.5,7.5s3.357,7.5,7.5,7.5h24.167V201.5
	c0,4.143,3.357,7.5,7.5,7.5s7.5-3.357,7.5-7.5v-20.834h53.667V201.5c0,4.143,3.357,7.5,7.5,7.5s7.5-3.357,7.5-7.5v-20.834H169V201.5
	c0,4.143,3.357,7.5,7.5,7.5s7.5-3.357,7.5-7.5v-20.834h17.5c4.143,0,7.5-3.357,7.5-7.5s-3.357-7.5-7.5-7.5H184V112H201.5z
	 M169,43.333V97h-53.666V43.333H169z M46.667,43.333h53.667V97H46.667V43.333z M46.667,165.666V112h53.667v53.666H46.667z
	 M169,165.666h-53.666V112H169V165.666z"/>
</svg>
