<svg id="SvgjsSvg1001" width="288" height="288" xmlns="http://www.w3.org/2000/svg" version="1.1" xmlns:xlink="http://www.w3.org/1999/xlink" xmlns:svgjs="http://svgjs.com/svgjs"><defs id="SvgjsDefs1002"></defs><g id="SvgjsG1008"><svg xmlns="http://www.w3.org/2000/svg" viewBox="0 0 51.345 51.345" width="288" height="288"><rect width="57.728" height="56.767" x="-3.418" y="-1.96" stroke="#000000" stroke-dashoffset="10" stroke-width=".529" display="none" class="colorStrokefff svgStroke"></rect><g transform="translate(-70.156 -98.36)" fill="#000000" class="color000 svgShape"><g transform="matrix(.22892 0 0 .22892 -47.29 -14.75)" fill="#000000" class="color000 svgShape"><circle cx="226.411" cy="213.424" r="55.007" fill="none" stroke="#727273" stroke-dashoffset="10" stroke-width="8.486" transform="matrix(.69021 0 0 .69021 460.432 418.455)" class="colorStroke727273 svgStroke"></circle><ellipse cx="616.866" cy="566.016" fill="#727273" stroke="#727273" stroke-dashoffset="10" stroke-linejoin="round" stroke-width="5.857" rx="12.725" ry="12.409" class="color727273 svgShape colorStroke727273 svgStroke"></ellipse></g><g fill="#727273" stroke-width="0" transform="matrix(.00395 .09271 -.0892 .0041 88.508 131.393)" class="color727273 svgShape"><path d="M-104.60978-209.61734c0 0 13.580524 69.58424 42.01941 93.93225 26.408144 22.60939 94.732144 28.70788 94.732144 28.70788 0 0-26.4982602-71.57816-52.14005-94.53282-25.55179-22.87408-84.611504-28.10731-84.611504-28.10731zM5.4837038-185.69036c0 0 23.9114102-41.16419 13.4029302-65.9493-9.7581002-23.01527-61.77472-56.38729-61.77472-56.38729 0 0-17.32106 48.12639-8.23507 71.04192 9.05412 22.83512 56.6068598 51.29467 56.6068598 51.29467zM50.047124-232.8922c0 0-27.32138 46.12565-24.10426 73.94104 3.5449 30.64945 44.55945 71.51359 44.55945 71.51359 0 0 26.05205-53.37945 20.93245-83.99997-4.63278-27.70867-41.38764-61.45466-41.38764-61.45466z" fill="#000000" class="color000 svgShape"></path></g><circle cx="95.828" cy="124.033" r="24.967" fill="none" stroke="#727273" stroke-dashoffset="10" stroke-linejoin="round" stroke-width="1.411" class="colorStroke727273 svgStroke"></circle><path fill="#727273" d="m 81.274051,120.51493 c 0.306432,6.89162 -2.124984,10.61968 0.514596,15.37819 2.639596,4.7585 7.977796,3.60179 9.687185,2.62409 1.709385,-0.9777 5.177805,-4.51468 2.674506,-9.30765 -2.503316,-4.79295 -6.955695,-4.69786 -12.876287,-8.69463 z" class="color727273 svgShape"></path><g transform="matrix(.22892 0 0 .22892 -47.29 -14.75)" fill="#000000" class="color000 svgShape"><circle cx="226.411" cy="213.424" r="55.007" fill="none" stroke="#727273" stroke-dashoffset="10" stroke-width="8.486" transform="matrix(.69021 0 0 .69021 460.432 418.455)" class="colorStroke727273 svgStroke"></circle><ellipse cx="616.866" cy="566.016" fill="#727273" stroke="#727273" stroke-dashoffset="10" stroke-linejoin="round" stroke-width="5.857" rx="12.725" ry="12.409" class="color727273 svgShape colorStroke727273 svgStroke"></ellipse></g><g fill="#727273" stroke-width="0" transform="matrix(.00395 .09271 -.0892 .0041 88.508 131.393)" class="color727273 svgShape"><path d="M-104.60978-209.61734c0 0 13.580524 69.58424 42.01941 93.93225 26.408144 22.60939 94.732144 28.70788 94.732144 28.70788 0 0-26.4982602-71.57816-52.14005-94.53282-25.55179-22.87408-84.611504-28.10731-84.611504-28.10731zM5.4837038-185.69036c0 0 23.9114102-41.16419 13.4029302-65.9493-9.7581002-23.01527-61.77472-56.38729-61.77472-56.38729 0 0-17.32106 48.12639-8.23507 71.04192 9.05412 22.83512 56.6068598 51.29467 56.6068598 51.29467zM50.047124-232.8922c0 0-27.32138 46.12565-24.10426 73.94104 3.5449 30.64945 44.55945 71.51359 44.55945 71.51359 0 0 26.05205-53.37945 20.93245-83.99997-4.63278-27.70867-41.38764-61.45466-41.38764-61.45466z" fill="#000000" class="color000 svgShape"></path></g><circle cx="95.828" cy="124.033" r="24.967" fill="none" stroke="#727273" stroke-dashoffset="10" stroke-linejoin="round" stroke-width="1.411" class="colorStroke727273 svgStroke"></circle><path fill="#727273" d="m 81.274051,120.51493 c 0.306432,6.89162 -2.124984,10.61968 0.514596,15.37819 2.639596,4.7585 7.977796,3.60179 9.687185,2.62409 1.709385,-0.9777 5.177805,-4.51468 2.674506,-9.30765 -2.503316,-4.79295 -6.955695,-4.69786 -12.876287,-8.69463 z" class="color727273 svgShape"></path><g transform="matrix(.22892 0 0 .22892 -47.29 -14.75)" fill="#000000" class="color000 svgShape"><circle cx="226.411" cy="213.424" r="55.007" fill="none" stroke="#727273" stroke-dashoffset="10" stroke-width="8.486" transform="matrix(.69021 0 0 .69021 460.432 418.455)" class="colorStroke727273 svgStroke"></circle><ellipse cx="616.866" cy="566.016" fill="#727273" stroke="#727273" stroke-dashoffset="10" stroke-linejoin="round" stroke-width="5.857" rx="12.725" ry="12.409" class="color727273 svgShape colorStroke727273 svgStroke"></ellipse></g><g fill="#727273" stroke-width="0" transform="matrix(.00395 .09271 -.0892 .0041 88.508 131.393)" class="color727273 svgShape"><path d="M-104.60978-209.61734c0 0 13.580524 69.58424 42.01941 93.93225 26.408144 22.60939 94.732144 28.70788 94.732144 28.70788 0 0-26.4982602-71.57816-52.14005-94.53282-25.55179-22.87408-84.611504-28.10731-84.611504-28.10731zM5.4837038-185.69036c0 0 23.9114102-41.16419 13.4029302-65.9493-9.7581002-23.01527-61.77472-56.38729-61.77472-56.38729 0 0-17.32106 48.12639-8.23507 71.04192 9.05412 22.83512 56.6068598 51.29467 56.6068598 51.29467zM50.047124-232.8922c0 0-27.32138 46.12565-24.10426 73.94104 3.5449 30.64945 44.55945 71.51359 44.55945 71.51359 0 0 26.05205-53.37945 20.93245-83.99997-4.63278-27.70867-41.38764-61.45466-41.38764-61.45466z" fill="#000000" class="color000 svgShape"></path></g><circle cx="95.828" cy="124.033" r="24.967" fill="none" stroke="#727273" stroke-dashoffset="10" stroke-linejoin="round" stroke-width="1.411" class="colorStroke727273 svgStroke"></circle><path fill="#727273" d="m 81.274051,120.51493 c 0.306432,6.89162 -2.124984,10.61968 0.514596,15.37819 2.639596,4.7585 7.977796,3.60179 9.687185,2.62409 1.709385,-0.9777 5.177805,-4.51468 2.674506,-9.30765 -2.503316,-4.79295 -6.955695,-4.69786 -12.876287,-8.69463 z" class="color727273 svgShape"></path><g stroke="#000000" transform="matrix(.22892 0 0 .22892 -47.29 -14.75)" class="colorStrokefff svgStroke"><circle cx="226.411" cy="213.424" r="55.007" fill="none" stroke-dashoffset="10" stroke-width="8.486" transform="matrix(.69021 0 0 .69021 460.432 418.455)"></circle><ellipse cx="616.866" cy="566.016" fill="#000000" stroke-dashoffset="10" stroke-linejoin="round" stroke-width="5.857" rx="12.725" ry="12.409" class="colorfff svgShape"></ellipse></g><g fill="#000000" stroke-width="0" transform="matrix(.00395 .09271 -.0892 .0041 88.508 131.393)" class="colorfff svgShape"><path d="M-104.60978-209.61734c0 0 13.580524 69.58424 42.01941 93.93225 26.408144 22.60939 94.732144 28.70788 94.732144 28.70788 0 0-26.4982602-71.57816-52.14005-94.53282-25.55179-22.87408-84.611504-28.10731-84.611504-28.10731zM5.4837038-185.69036c0 0 23.9114102-41.16419 13.4029302-65.9493-9.7581002-23.01527-61.77472-56.38729-61.77472-56.38729 0 0-17.32106 48.12639-8.23507 71.04192 9.05412 22.83512 56.6068598 51.29467 56.6068598 51.29467zM50.047124-232.8922c0 0-27.32138 46.12565-24.10426 73.94104 3.5449 30.64945 44.55945 71.51359 44.55945 71.51359 0 0 26.05205-53.37945 20.93245-83.99997-4.63278-27.70867-41.38764-61.45466-41.38764-61.45466z" fill="#000000" class="color000 svgShape"></path></g><circle cx="95.828" cy="124.033" r="24.967" fill="none" stroke="#000000" stroke-dashoffset="10" stroke-linejoin="round" stroke-width="1.411" class="colorStrokefff svgStroke"></circle><path fill="#000000" d="m 81.274051,120.51493 c 0.306432,6.89162 -2.124984,10.61968 0.514596,15.37819 2.639596,4.7585 7.977796,3.60179 9.687185,2.62409 1.709385,-0.9777 5.177805,-4.51468 2.674506,-9.30765 -2.503316,-4.79295 -6.955695,-4.69786 -12.876287,-8.69463 z" class="colorfff svgShape"></path></g></svg></g></svg>
