<?xml version="1.0" encoding="UTF-8" standalone="no"?>
<!-- Created with Inkscape (http://www.inkscape.org/) -->

<svg width="51.345173mm" height="51.345173mm" viewBox="0 0 51.345173 51.345173" version="1.1" id="svg342" inkscape:version="1.2.2 (b0a8486541, 2022-12-01)" sodipodi:docname="permaplant-logo.svg" xmlns:inkscape="http://www.inkscape.org/namespaces/inkscape" xmlns:sodipodi="http://sodipodi.sourceforge.net/DTD/sodipodi-0.dtd" xmlns="http://www.w3.org/2000/svg" xmlns:svg="http://www.w3.org/2000/svg">
  <sodipodi:namedview id="namedview344" pagecolor="#727273" bordercolor="#666666" borderopacity="1.0" inkscape:showpageshadow="2" inkscape:pageopacity="0.0" inkscape:pagecheckerboard="0" inkscape:deskcolor="#d1d1d1" inkscape:document-units="mm" showgrid="false" inkscape:zoom="2.2022289" inkscape:cx="31.558935" inkscape:cy="134.40928" inkscape:window-width="1920" inkscape:window-height="1056" inkscape:window-x="1920" inkscape:window-y="24" inkscape:window-maximized="1" inkscape:current-layer="layer2" />
  <defs id="defs339" />
  <g inkscape:groupmode="layer" id="layer2" inkscape:label="Layer 2" style="display:none">
    <rect style="fill:#000000;fill-opacity:1;stroke:#727273;stroke-width:0.529167;stroke-dashoffset:10;stroke-opacity:1" id="rect1513" width="57.727539" height="56.766769" x="-3.4179199" y="-1.9596016" />
  </g>
  <g inkscape:label="Layer 1" inkscape:groupmode="layer" id="layer1" transform="translate(-70.15579,-98.360594)">
    <g id="g4050" transform="matrix(0.22892379,0,0,0.22892379,-47.290386,-14.750801)">
      <g id="g4046" transform="matrix(0.69020973,0,0,0.69020973,460.4321,418.45486)" style="fill:none;fill-opacity:1;stroke:#727273;stroke-width:8.48551;stroke-dasharray:none;stroke-opacity:1">
        <g id="g4044" style="fill:none;fill-opacity:1;stroke:#727273;stroke-width:8.48551;stroke-dasharray:none;stroke-opacity:1">
          <circle style="fill:none;fill-opacity:1;stroke:#727273;stroke-width:8.48551;stroke-dasharray:none;stroke-dashoffset:10;stroke-opacity:1" id="circle4042" cx="226.41068" cy="213.42375" r="55.007133" />
        </g>
      </g>
      <ellipse style="fill:#727273;fill-opacity:1;stroke:#727273;stroke-width:5.85678;stroke-linecap:butt;stroke-linejoin:round;stroke-dasharray:none;stroke-dashoffset:10;stroke-opacity:1;paint-order:normal" id="ellipse4048" cx="616.86633" cy="566.01599" rx="12.725097" ry="12.409231" />
    </g>
    <g id="g4058" style="fill:#727273;fill-opacity:1;stroke-width:0;stroke-dasharray:none" transform="matrix(0.00394641,0.09271331,-0.0891991,0.00410188,88.507688,131.39333)">
      <path style="fill:#727273;fill-opacity:1;stroke:none;stroke-width:0.949214px;stroke-linecap:butt;stroke-linejoin:miter;stroke-opacity:1" d="m -104.60978,-209.61734 c 0,0 13.580524,69.58424 42.01941,93.93225 26.408144,22.60939 94.732144,28.70788 94.732144,28.70788 0,0 -26.4982602,-71.57816 -52.14005,-94.53282 -25.55179,-22.87408 -84.611504,-28.10731 -84.611504,-28.10731 z" id="path4052" sodipodi:nodetypes="cscsc" />
      <path style="fill:#727273;fill-opacity:1;stroke:none;stroke-width:0.702766px;stroke-linecap:butt;stroke-linejoin:miter;stroke-opacity:1" d="m 5.4837038,-185.69036 c 0,0 23.9114102,-41.16419 13.4029302,-65.9493 -9.7581002,-23.01527 -61.77472,-56.38729 -61.77472,-56.38729 0,0 -17.32106,48.12639 -8.23507,71.04192 9.05412,22.83512 56.6068598,51.29467 56.6068598,51.29467 z" id="path4054" sodipodi:nodetypes="cscsc" />
      <path style="fill:#727273;fill-opacity:1;stroke:none;stroke-width:0.765234px;stroke-linecap:butt;stroke-linejoin:miter;stroke-opacity:1" d="m 50.047124,-232.8922 c 0,0 -27.32138,46.12565 -24.10426,73.94104 3.5449,30.64945 44.55945,71.51359 44.55945,71.51359 0,0 26.05205,-53.37945 20.93245,-83.99997 -4.63278,-27.70867 -41.38764,-61.45466 -41.38764,-61.45466 z" id="path4056" sodipodi:nodetypes="cscsc" />
    </g>
    <circle style="fill:none;fill-opacity:1;stroke:#727273;stroke-width:1.41111;stroke-linecap:butt;stroke-linejoin:round;stroke-dasharray:none;stroke-dashoffset:10;stroke-opacity:1;paint-order:normal" id="path4099" cx="95.828377" cy="124.03318" r="24.967031" />
    <path style="display:inline;fill:#727273;fill-opacity:1;stroke:#373bae;stroke-width:0;stroke-linecap:butt;stroke-linejoin:miter;stroke-dasharray:none;stroke-opacity:1" d="m 81.274051,120.51493 c 0.306432,6.89162 -2.124984,10.61968 0.514596,15.37819 2.639596,4.7585 7.977796,3.60179 9.687185,2.62409 1.709385,-0.9777 5.177805,-4.51468 2.674506,-9.30765 -2.503316,-4.79295 -6.955695,-4.69786 -12.876287,-8.69463 z" id="path4076" sodipodi:nodetypes="czzzc" />
    <g id="g410" transform="matrix(0.22892379,0,0,0.22892379,-47.290386,-14.750801)">
      <g id="g406" transform="matrix(0.69020973,0,0,0.69020973,460.4321,418.45486)" style="fill:none;fill-opacity:1;stroke:#727273;stroke-width:8.48551;stroke-dasharray:none;stroke-opacity:1">
        <g id="g404" style="fill:none;fill-opacity:1;stroke:#727273;stroke-width:8.48551;stroke-dasharray:none;stroke-opacity:1">
          <circle style="fill:none;fill-opacity:1;stroke:#727273;stroke-width:8.48551;stroke-dasharray:none;stroke-dashoffset:10;stroke-opacity:1" id="circle402" cx="226.41068" cy="213.42375" r="55.007133" />
        </g>
      </g>
      <ellipse style="fill:#727273;fill-opacity:1;stroke:#727273;stroke-width:5.85678;stroke-linecap:butt;stroke-linejoin:round;stroke-dasharray:none;stroke-dashoffset:10;stroke-opacity:1;paint-order:normal" id="ellipse408" cx="616.86633" cy="566.01599" rx="12.725097" ry="12.409231" />
    </g>
    <g id="g418" style="fill:#727273;fill-opacity:1;stroke-width:0;stroke-dasharray:none" transform="matrix(0.00394641,0.09271331,-0.0891991,0.00410188,88.507688,131.39333)">
      <path style="fill:#727273;fill-opacity:1;stroke:none;stroke-width:0.949214px;stroke-linecap:butt;stroke-linejoin:miter;stroke-opacity:1" d="m -104.60978,-209.61734 c 0,0 13.580524,69.58424 42.01941,93.93225 26.408144,22.60939 94.732144,28.70788 94.732144,28.70788 0,0 -26.4982602,-71.57816 -52.14005,-94.53282 -25.55179,-22.87408 -84.611504,-28.10731 -84.611504,-28.10731 z" id="path412" sodipodi:nodetypes="cscsc" />
      <path style="fill:#727273;fill-opacity:1;stroke:none;stroke-width:0.702766px;stroke-linecap:butt;stroke-linejoin:miter;stroke-opacity:1" d="m 5.4837038,-185.69036 c 0,0 23.9114102,-41.16419 13.4029302,-65.9493 -9.7581002,-23.01527 -61.77472,-56.38729 -61.77472,-56.38729 0,0 -17.32106,48.12639 -8.23507,71.04192 9.05412,22.83512 56.6068598,51.29467 56.6068598,51.29467 z" id="path414" sodipodi:nodetypes="cscsc" />
      <path style="fill:#727273;fill-opacity:1;stroke:none;stroke-width:0.765234px;stroke-linecap:butt;stroke-linejoin:miter;stroke-opacity:1" d="m 50.047124,-232.8922 c 0,0 -27.32138,46.12565 -24.10426,73.94104 3.5449,30.64945 44.55945,71.51359 44.55945,71.51359 0,0 26.05205,-53.37945 20.93245,-83.99997 -4.63278,-27.70867 -41.38764,-61.45466 -41.38764,-61.45466 z" id="path416" sodipodi:nodetypes="cscsc" />
    </g>
    <circle style="fill:none;fill-opacity:1;stroke:#727273;stroke-width:1.41111;stroke-linecap:butt;stroke-linejoin:round;stroke-dasharray:none;stroke-dashoffset:10;stroke-opacity:1;paint-order:normal" id="circle420" cx="95.828377" cy="124.03318" r="24.967031" />
    <path style="display:inline;fill:#727273;fill-opacity:1;stroke:#373bae;stroke-width:0;stroke-linecap:butt;stroke-linejoin:miter;stroke-dasharray:none;stroke-opacity:1" d="m 81.274051,120.51493 c 0.306432,6.89162 -2.124984,10.61968 0.514596,15.37819 2.639596,4.7585 7.977796,3.60179 9.687185,2.62409 1.709385,-0.9777 5.177805,-4.51468 2.674506,-9.30765 -2.503316,-4.79295 -6.955695,-4.69786 -12.876287,-8.69463 z" id="path422" sodipodi:nodetypes="czzzc" />
    <g id="g432" transform="matrix(0.22892379,0,0,0.22892379,-47.290386,-14.750801)">
      <g id="g428" transform="matrix(0.69020973,0,0,0.69020973,460.4321,418.45486)" style="fill:none;fill-opacity:1;stroke:#727273;stroke-width:8.48551;stroke-dasharray:none;stroke-opacity:1">
        <g id="g426" style="fill:none;fill-opacity:1;stroke:#727273;stroke-width:8.48551;stroke-dasharray:none;stroke-opacity:1">
          <circle style="fill:none;fill-opacity:1;stroke:#727273;stroke-width:8.48551;stroke-dasharray:none;stroke-dashoffset:10;stroke-opacity:1" id="circle424" cx="226.41068" cy="213.42375" r="55.007133" />
        </g>
      </g>
      <ellipse style="fill:#727273;fill-opacity:1;stroke:#727273;stroke-width:5.85678;stroke-linecap:butt;stroke-linejoin:round;stroke-dasharray:none;stroke-dashoffset:10;stroke-opacity:1;paint-order:normal" id="ellipse430" cx="616.86633" cy="566.01599" rx="12.725097" ry="12.409231" />
    </g>
    <g id="g440" style="fill:#727273;fill-opacity:1;stroke-width:0;stroke-dasharray:none" transform="matrix(0.00394641,0.09271331,-0.0891991,0.00410188,88.507688,131.39333)">
      <path style="fill:#727273;fill-opacity:1;stroke:none;stroke-width:0.949214px;stroke-linecap:butt;stroke-linejoin:miter;stroke-opacity:1" d="m -104.60978,-209.61734 c 0,0 13.580524,69.58424 42.01941,93.93225 26.408144,22.60939 94.732144,28.70788 94.732144,28.70788 0,0 -26.4982602,-71.57816 -52.14005,-94.53282 -25.55179,-22.87408 -84.611504,-28.10731 -84.611504,-28.10731 z" id="path434" sodipodi:nodetypes="cscsc" />
      <path style="fill:#727273;fill-opacity:1;stroke:none;stroke-width:0.702766px;stroke-linecap:butt;stroke-linejoin:miter;stroke-opacity:1" d="m 5.4837038,-185.69036 c 0,0 23.9114102,-41.16419 13.4029302,-65.9493 -9.7581002,-23.01527 -61.77472,-56.38729 -61.77472,-56.38729 0,0 -17.32106,48.12639 -8.23507,71.04192 9.05412,22.83512 56.6068598,51.29467 56.6068598,51.29467 z" id="path436" sodipodi:nodetypes="cscsc" />
      <path style="fill:#727273;fill-opacity:1;stroke:none;stroke-width:0.765234px;stroke-linecap:butt;stroke-linejoin:miter;stroke-opacity:1" d="m 50.047124,-232.8922 c 0,0 -27.32138,46.12565 -24.10426,73.94104 3.5449,30.64945 44.55945,71.51359 44.55945,71.51359 0,0 26.05205,-53.37945 20.93245,-83.99997 -4.63278,-27.70867 -41.38764,-61.45466 -41.38764,-61.45466 z" id="path438" sodipodi:nodetypes="cscsc" />
    </g>
    <circle style="fill:none;fill-opacity:1;stroke:#727273;stroke-width:1.41111;stroke-linecap:butt;stroke-linejoin:round;stroke-dasharray:none;stroke-dashoffset:10;stroke-opacity:1;paint-order:normal" id="circle442" cx="95.828377" cy="124.03318" r="24.967031" />
    <path style="display:inline;fill:#727273;fill-opacity:1;stroke:#373bae;stroke-width:0;stroke-linecap:butt;stroke-linejoin:miter;stroke-dasharray:none;stroke-opacity:1" d="m 81.274051,120.51493 c 0.306432,6.89162 -2.124984,10.61968 0.514596,15.37819 2.639596,4.7585 7.977796,3.60179 9.687185,2.62409 1.709385,-0.9777 5.177805,-4.51468 2.674506,-9.30765 -2.503316,-4.79295 -6.955695,-4.69786 -12.876287,-8.69463 z" id="path444" sodipodi:nodetypes="czzzc" />
    <g id="g454" transform="matrix(0.22892379,0,0,0.22892379,-47.290386,-14.750801)" style="stroke:#727273;stroke-opacity:1">
      <g id="g450" transform="matrix(0.69020973,0,0,0.69020973,460.4321,418.45486)" style="fill:none;fill-opacity:1;stroke:#727273;stroke-width:8.48551;stroke-dasharray:none;stroke-opacity:1">
        <g id="g448" style="fill:none;fill-opacity:1;stroke:#727273;stroke-width:8.48551;stroke-dasharray:none;stroke-opacity:1">
          <circle style="fill:none;fill-opacity:1;stroke:#727273;stroke-width:8.48551;stroke-dasharray:none;stroke-dashoffset:10;stroke-opacity:1" id="circle446" cx="226.41068" cy="213.42375" r="55.007133" />
        </g>
      </g>
      <ellipse style="fill:#727273;fill-opacity:1;stroke:#727273;stroke-width:5.85678;stroke-linecap:butt;stroke-linejoin:round;stroke-dasharray:none;stroke-dashoffset:10;stroke-opacity:1;paint-order:normal" id="ellipse452" cx="616.86633" cy="566.01599" rx="12.725097" ry="12.409231" />
    </g>
    <g id="g462" style="fill:#727273;fill-opacity:1;stroke-width:0;stroke-dasharray:none" transform="matrix(0.00394641,0.09271331,-0.0891991,0.00410188,88.507688,131.39333)">
      <path style="fill:#727273;fill-opacity:1;stroke:none;stroke-width:0.949214px;stroke-linecap:butt;stroke-linejoin:miter;stroke-opacity:1" d="m -104.60978,-209.61734 c 0,0 13.580524,69.58424 42.01941,93.93225 26.408144,22.60939 94.732144,28.70788 94.732144,28.70788 0,0 -26.4982602,-71.57816 -52.14005,-94.53282 -25.55179,-22.87408 -84.611504,-28.10731 -84.611504,-28.10731 z" id="path456" sodipodi:nodetypes="cscsc" />
      <path style="fill:#727273;fill-opacity:1;stroke:none;stroke-width:0.702766px;stroke-linecap:butt;stroke-linejoin:miter;stroke-opacity:1" d="m 5.4837038,-185.69036 c 0,0 23.9114102,-41.16419 13.4029302,-65.9493 -9.7581002,-23.01527 -61.77472,-56.38729 -61.77472,-56.38729 0,0 -17.32106,48.12639 -8.23507,71.04192 9.05412,22.83512 56.6068598,51.29467 56.6068598,51.29467 z" id="path458" sodipodi:nodetypes="cscsc" />
      <path style="fill:#727273;fill-opacity:1;stroke:none;stroke-width:0.765234px;stroke-linecap:butt;stroke-linejoin:miter;stroke-opacity:1" d="m 50.047124,-232.8922 c 0,0 -27.32138,46.12565 -24.10426,73.94104 3.5449,30.64945 44.55945,71.51359 44.55945,71.51359 0,0 26.05205,-53.37945 20.93245,-83.99997 -4.63278,-27.70867 -41.38764,-61.45466 -41.38764,-61.45466 z" id="path460" sodipodi:nodetypes="cscsc" />
    </g>
    <circle style="fill:none;fill-opacity:1;stroke:#727273;stroke-width:1.41111;stroke-linecap:butt;stroke-linejoin:round;stroke-dasharray:none;stroke-dashoffset:10;stroke-opacity:1;paint-order:normal" id="circle464" cx="95.828377" cy="124.03318" r="24.967031" />
    <path style="display:inline;fill:#727273;fill-opacity:1;stroke:#373bae;stroke-width:0;stroke-linecap:butt;stroke-linejoin:miter;stroke-dasharray:none;stroke-opacity:1" d="m 81.274051,120.51493 c 0.306432,6.89162 -2.124984,10.61968 0.514596,15.37819 2.639596,4.7585 7.977796,3.60179 9.687185,2.62409 1.709385,-0.9777 5.177805,-4.51468 2.674506,-9.30765 -2.503316,-4.79295 -6.955695,-4.69786 -12.876287,-8.69463 z" id="path466" sodipodi:nodetypes="czzzc" />
  </g>
</svg>
