<?xml version="1.0" encoding="UTF-8" standalone="no"?>
<!-- Created with Inkscape (http://www.inkscape.org/) -->

<svg width="60.029644mm" height="57.824867mm" viewBox="0 0 60.029644 57.824867" version="1.1" id="svg1662" inkscape:version="1.2.2 (b0a8486541, 2022-12-01)" sodipodi:docname="permaplant-logo-2.svg" xmlns:inkscape="http://www.inkscape.org/namespaces/inkscape" xmlns:sodipodi="http://sodipodi.sourceforge.net/DTD/sodipodi-0.dtd" xmlns="http://www.w3.org/2000/svg" xmlns:svg="http://www.w3.org/2000/svg">
  <sodipodi:namedview id="namedview1664" pagecolor="#ffffff" bordercolor="#666666" borderopacity="1.0" inkscape:showpageshadow="2" inkscape:pageopacity="0.0" inkscape:pagecheckerboard="0" inkscape:deskcolor="#d1d1d1" inkscape:document-units="mm" showgrid="false" inkscape:zoom="1.1011145" inkscape:cx="274.72167" inkscape:cy="93.087507" inkscape:window-width="941" inkscape:window-height="509" inkscape:window-x="1930" inkscape:window-y="557" inkscape:window-maximized="1" inkscape:current-layer="layer1" />
  <defs id="defs1659" />
  <g inkscape:label="Layer 1" inkscape:groupmode="layer" id="layer1" transform="translate(-8.0446734,-126.04409)">
    <g id="g3248" style="fill:#727273;fill-opacity:1;stroke-width:0;stroke-dasharray:none" transform="matrix(0.02406853,0.13649941,-0.13649941,0.02406853,27.061074,159.61265)">
      <path style="fill:#727273;fill-opacity:1;stroke:none;stroke-width:0.949214px;stroke-linecap:butt;stroke-linejoin:miter;stroke-opacity:1" d="m -104.60978,-209.61734 c 0,0 13.580524,69.58424 42.01941,93.93225 26.408144,22.60939 94.732144,28.70788 94.732144,28.70788 0,0 -26.4982602,-71.57816 -52.14005,-94.53282 -25.55179,-22.87408 -84.611504,-28.10731 -84.611504,-28.10731 z" id="path3242" sodipodi:nodetypes="cscsc" />
      <path style="fill:#727273;fill-opacity:1;stroke:none;stroke-width:0.702766px;stroke-linecap:butt;stroke-linejoin:miter;stroke-opacity:1" d="m 5.4837038,-185.69036 c 0,0 23.9114102,-41.16419 13.4029302,-65.9493 -9.7581002,-23.01527 -61.77472,-56.38729 -61.77472,-56.38729 0,0 -17.32106,48.12639 -8.23507,71.04192 9.05412,22.83512 56.6068598,51.29467 56.6068598,51.29467 z" id="path3244" sodipodi:nodetypes="cscsc" />
      <path style="fill:#727273;fill-opacity:1;stroke:none;stroke-width:0.765234px;stroke-linecap:butt;stroke-linejoin:miter;stroke-opacity:1" d="m 50.047124,-232.8922 c 0,0 -27.32138,46.12565 -24.10426,73.94104 3.5449,30.64945 44.55945,71.51359 44.55945,71.51359 0,0 26.05205,-53.37945 20.93245,-83.99997 -4.63278,-27.70867 -41.38764,-61.45466 -41.38764,-61.45466 z" id="path3246" sodipodi:nodetypes="cscsc" />
    </g>
    <g id="g3258" transform="matrix(0.10326092,0,0,0.10326092,-10.35071,121.32355)" style="stroke:#727273;stroke-opacity:1">
      <path style="fill:none;stroke:#727273;stroke-width:17.3333;stroke-linecap:butt;stroke-linejoin:round;stroke-dasharray:none;stroke-opacity:1;paint-order:normal" d="m 197.82032,299.29215 c 14.23704,1.6153 26.02411,-6.7657 37.29785,-17.24118 0,0 23.7279,17.47224 37.93449,17.4476 14.29716,-0.0248 37.84042,-17.70492 37.84042,-17.70492 0,0 23.63675,17.79442 37.81637,17.93011 14.09461,0.13487 37.55392,-17.09187 37.55392,-17.09187 14.9351,12.29291 26.77906,16.79569 37.15144,17.58986" id="path3250" sodipodi:nodetypes="ccscscc" />
      <path style="fill:none;stroke:#727273;stroke-width:17.3333;stroke-linecap:butt;stroke-linejoin:round;stroke-dasharray:none;stroke-opacity:1;paint-order:normal" d="m 198.16435,345.4451 c 14.23704,1.6153 26.02411,-6.7657 37.29785,-17.24118 0,0 23.7279,17.47224 37.93449,17.4476 14.29716,-0.0248 37.84042,-17.70492 37.84042,-17.70492 0,0 23.63675,17.79442 37.81637,17.93011 14.09461,0.13487 37.55392,-17.09187 37.55392,-17.09187 14.9351,12.29291 26.77906,16.79569 37.15144,17.58986" id="path3252" sodipodi:nodetypes="ccscscc" />
      <path style="fill:none;stroke:#727273;stroke-width:17.3333;stroke-linecap:butt;stroke-linejoin:round;stroke-dasharray:none;stroke-opacity:1;paint-order:normal" d="m 197.86396,391.03965 c 14.23704,1.6153 26.02411,-6.7657 37.29785,-17.24118 0,0 23.7279,17.47224 37.93449,17.4476 14.29716,-0.0248 37.84042,-17.70492 37.84042,-17.70492 0,0 23.63675,17.79442 37.81637,17.93011 14.09461,0.13487 37.55392,-17.09187 37.55392,-17.09187 14.9351,12.29291 26.77906,16.79569 37.15144,17.58986" id="path3254" sodipodi:nodetypes="ccscscc" />
      <path style="fill:none;stroke:#727273;stroke-width:17.3333;stroke-linecap:butt;stroke-linejoin:round;stroke-dasharray:none;stroke-opacity:1;paint-order:normal" d="m 198.1462,437.62602 c 14.23704,1.6153 26.02411,-6.7657 37.29785,-17.24118 0,0 23.7279,17.47224 37.93449,17.4476 14.29716,-0.0248 37.84042,-17.70492 37.84042,-17.70492 0,0 23.63675,17.79442 37.81637,17.93011 14.09461,0.13487 37.55392,-17.09187 37.55392,-17.09187 14.9351,12.29291 26.77906,16.79569 37.15144,17.58986" id="path3256" sodipodi:nodetypes="ccscscc" />
    </g>
    <g id="g3287" transform="matrix(0.26458333,0,0,0.26458333,-188.3313,54.415044)">
      <g id="g3264" transform="matrix(0.6201469,0,0,0.6201469,711.41363,175.1135)" style="fill:none;fill-opacity:1;stroke:#727273;stroke-width:8.48551;stroke-dasharray:none;stroke-opacity:1">
        <g id="g3262" style="fill:none;fill-opacity:1;stroke:#727273;stroke-width:8.48551;stroke-dasharray:none;stroke-opacity:1">
          <circle style="fill:none;fill-opacity:1;stroke:#727273;stroke-width:8.48551;stroke-dasharray:none;stroke-dashoffset:10;stroke-opacity:1" id="circle3260" cx="226.41068" cy="213.42375" r="55.007133" />
        </g>
      </g>
      <ellipse style="fill:#727273;fill-opacity:1;stroke:#727273;stroke-width:5.26227;stroke-linecap:butt;stroke-linejoin:round;stroke-dasharray:none;stroke-dashoffset:10;stroke-opacity:1;paint-order:normal" id="ellipse3266" cx="851.96832" cy="307.69574" rx="11.433379" ry="11.149577" />
    </g>
    <path style="fill:none;stroke:#727273;stroke-width:1.05833;stroke-linecap:butt;stroke-linejoin:miter;stroke-dasharray:none;stroke-opacity:1" d="M 36.965688,148.4405 36.465281,171.37367 8.2950307,171.1684 65.409274,171.77676" id="path3272" />
    <text xml:space="preserve" style="font-style:normal;font-weight:normal;font-size:10.5833px;line-height:1.25;font-family:sans-serif;fill:#727273;fill-opacity:1;stroke:none;stroke-width:0.264583;stroke-opacity:1" x="7.2403426" y="181.83696" id="text3291">
      <tspan sodipodi:role="line" id="tspan3289" x="7.2403426" y="181.83696" style="font-style:normal;font-variant:normal;font-weight:normal;font-stretch:normal;font-family:'URW Gothic';-inkscape-font-specification:'URW Gothic';fill:#727273;fill-opacity:1;stroke:none;stroke-width:0.264583;stroke-opacity:1">PermaplanT</tspan>
    </text>
  </g>
</svg>
