<?xml version="1.0" standalone="no"?>
<!DOCTYPE svg PUBLIC "-//W3C//DTD SVG 20010904//EN" "http://www.w3.org/TR/2001/REC-SVG-20010904/DTD/svg10.dtd">
<!-- Created using Krita: https://krita.org -->
<svg xmlns="http://www.w3.org/2000/svg"
    xmlns:xlink="http://www.w3.org/1999/xlink"
    xmlns:krita="http://krita.org/namespaces/svg/krita"
    xmlns:sodipodi="http://sodipodi.sourceforge.net/DTD/sodipodi-0.dtd"
    width="44"
    height="44"
    viewBox="0 0 280.56 280.56">
    <defs />
    <path id="shape0"
        transform="matrix(-0.671514340016103 -0.74099157117783 0.74099157117783 -0.671514340016103 68.8087202991549 203.398775979185)"
        stroke-width="10.44" stroke-linecap="square" stroke-linejoin="bevel"
        d="M0 76.4615L15.4238 90.5965L48.6142 54.3255L75.8932 81.1127L83.4028 0L9.23527 19.5737L33.9455 40.2635Z"
        sodipodi:nodetypes="cccccccc" />
    <path id="shape01"
        transform="matrix(0.67151433423779 0.740991564801672 -0.740991564801672 0.67151433423779 198.244906844577 64.8826949715321)"
        stroke-width="10.44" stroke-linecap="square"
        stroke-linejoin="bevel"
        d="M0 97.9835L16.6806 110.671L67.6137 54.3255L94.8927 81.1127L102.402 0L28.2348 19.5737L52.945 40.2635Z"
        sodipodi:nodetypes="cccccccc" />
    <path id="shape02"
        transform="matrix(0.740991559351707 -0.671514329298827 0.671514329298827 0.740991559351707 78.9611906196901 72.1333651086655)"
        stroke-width="10.44" stroke-linecap="square"
        stroke-linejoin="bevel"
        d="M0 76.4615L15.4238 90.5965L48.6142 54.3255L75.8932 81.1127L83.4028 0L9.23527 19.5737L33.9455 40.2635Z"
        sodipodi:nodetypes="cccccccc" />
    <path id="shape03"
        transform="matrix(-0.740991559351707 0.671514329298827 -0.671514329298827 -0.740991559351707 202.918809369163 213.181119575091)"
        stroke-width="10.44"
        stroke-linecap="square" stroke-linejoin="bevel"
        d="M0 76.4615L15.4238 90.5965L48.6142 54.3255L75.8932 81.1127L83.4028 0L9.23527 19.5737L33.9455 40.2635Z"
        sodipodi:nodetypes="cccccccc" />
</svg>
